<?xml version="1.0" encoding="UTF-8"?>
<svg width="34px" height="24px" viewBox="0 0 34 24" version="1.1" xmlns="http://www.w3.org/2000/svg" xmlns:xlink="http://www.w3.org/1999/xlink">
    <title>60890f6ac44206492a238221_discord</title>
    <defs>
        <filter color-interpolation-filters="auto" id="filter-1">
            <feColorMatrix in="SourceGraphic" type="matrix" values="0 0 0 0 1.000000 0 0 0 0 1.000000 0 0 0 0 1.000000 0 0 0 1.000000 0"></feColorMatrix>
        </filter>
    </defs>
    <g id="Page-1" stroke="none" stroke-width="1" fill="none" fill-rule="evenodd">
        <g filter="url(#filter-1)" id="60890f6ac44206492a238221_discord">
            <g transform="translate(0.000000, 0.000846)">
                <path d="M12.2160864,0 L12.5042017,0.3457383 C8.3553421,1.5212485 6.0135414,3.2130612 5.2427755,3.8427659 L5.1288207,3.9376117 C5.01275,4.0361602 4.9555822,4.0912365 4.9555822,4.0912365 C4.9555822,4.0912365 5.5894358,3.7454982 6.6554622,3.2845138 C9.7382953,1.9303721 12.1872749,1.5846339 13.1956783,1.4693878 C13.3685474,1.4405762 13.512605,1.4117647 13.6854742,1.4117647 C15.4429772,1.1812725 17.4309724,1.1236495 19.5054022,1.3541417 C22.242497,1.6710684 25.1812725,2.4777911 28.1776711,4.0912365 C28.1776711,4.0912365 25.9015606,1.9303721 21.0036014,0.4609844 L21.4069628,0 L21.5262506,0.0007592 C22.2143095,0.0153597 25.7745547,0.2281402 29.4741897,2.9963986 C29.4741897,2.9963986 33.6230492,10.4585834 33.6230492,19.6494598 C33.6230492,19.6478289 33.615295,19.6595833 33.5995097,19.6832494 L33.5571489,19.7460272 L33.5571489,19.7460272 L33.4928794,19.8379499 C32.9149052,20.6477191 30.3619108,23.7961449 24.8355342,23.9711885 C24.8355342,23.9711885 23.7983193,22.7322929 22.9339736,21.6662665 C26.7082833,20.6002401 28.1488595,18.2665066 28.1488595,18.2665066 C26.967587,19.0444178 25.8439376,19.5918367 24.8355342,19.9663866 C23.394958,20.5714286 22.0120048,20.9459784 20.6578631,21.2052821 C17.8919568,21.7238896 15.3565426,21.5798319 13.1956783,21.1764706 C11.5534214,20.8595438 10.1416567,20.4273709 8.9603842,19.937575 C8.2977191,19.6782713 7.577431,19.3613445 6.8571429,18.9579832 L6.5978391,18.8139256 L6.5978391,18.8139256 C6.5402161,18.785114 6.5114046,18.7563025 6.482593,18.7563025 C5.9639856,18.4681873 5.6758703,18.2665066 5.6758703,18.2665066 C5.6758703,18.2665066 7.0588235,20.542617 10.7178872,21.637455 L10.6041069,21.7811219 L10.6041069,21.7811219 L10.3721844,22.0714962 L10.3721844,22.0714962 L10.1386138,22.3611885 C9.440431,23.2235594 8.787515,24 8.787515,24 C2.4201681,23.7983193 0,19.6494598 0,19.6494598 C0,10.4585834 4.1488595,2.9963986 4.1488595,2.9963986 C7.8743661,0.2281402 11.4140197,0.0153597 12.0976068,0.0007592 L12.2160864,0 L12.2160864,0 Z M21.9543818,10.6314526 C20.3121248,10.6314526 19.0156062,12.0432173 19.0156062,13.8007203 C19.0156062,15.5582233 20.3409364,16.969988 21.9543818,16.969988 C23.5966387,16.969988 24.8931573,15.5582233 24.8931573,13.8007203 C24.8931573,12.0432173 23.5678271,10.6314526 21.9543818,10.6314526 Z M11.4381753,10.6314526 C9.7959184,10.6314526 8.4993998,12.0432173 8.4993998,13.8007203 C8.4993998,15.5582233 9.8247299,16.969988 11.4381753,16.969988 C13.0804322,16.969988 14.3769508,15.5582233 14.3769508,13.8007203 C14.4057623,12.0432173 13.0804322,10.6314526 11.4381753,10.6314526 Z" id="Shape" fill="#FF6F61" fill-rule="nonzero"></path>
            </g>
        </g>
    </g>
</svg>