<svg width="46" height="46" viewBox="0 0 46 46" fill="none" xmlns="http://www.w3.org/2000/svg">
<path fill-rule="evenodd" clip-rule="evenodd" d="M21.8085 13.7904L21.4731 13.6974L15.3422 11.999L11.4806 14.3192L9.94971 21.0983L15.8791 26.513L22.2084 33.0696L34.0819 24.8913L35.6901 17.5323L34.7213 12.8275L29.7083 12.3652H25.6966L23 15.3091L21.8085 13.7904Z" fill="#FF6F61"/>
<path fill-rule="evenodd" clip-rule="evenodd" d="M16.2915 9.58301C11.2604 9.58301 7.6665 12.8732 7.6665 18.4783C7.6665 22.3121 10.1392 26.2234 16.1086 31.4318L16.7629 32.0242L20.4417 35.3022C21.8917 36.5863 24.0718 36.5871 25.5227 35.304L27.7666 33.3133L29.2663 31.9708C35.6886 26.491 38.3332 22.4432 38.3332 18.4783C38.3332 12.8732 34.7393 9.58301 29.7082 9.58301C27.294 9.58301 25.051 10.6114 22.9999 12.5755C20.9488 10.6114 18.7058 9.58301 16.2915 9.58301ZM24.3688 16.755C24.421 16.7019 24.4696 16.6462 24.5144 16.5885C26.2761 14.4144 27.9942 13.4163 29.7082 13.4163C32.6941 13.4163 34.4999 15.0696 34.4999 18.4783C34.4999 20.5062 32.8726 23.235 29.5328 26.5357L29.5257 26.5285L29.4018 26.649L28.7157 27.2942L27.119 28.7481L22.9832 32.4325L19.1449 29.011L17.3903 27.4176L16.9598 27.0151C13.2871 23.4986 11.4998 20.6036 11.4998 18.4783C11.4998 15.0696 13.3057 13.4163 16.2915 13.4163C18.0056 13.4163 19.7237 14.4144 21.4853 16.5885C21.5304 16.6465 21.5792 16.7024 21.6317 16.7557C21.7978 16.9254 21.9895 17.0584 22.1956 17.1535C22.4516 17.272 22.7263 17.3301 22.9999 17.33C23.2735 17.3301 23.5484 17.272 23.8044 17.1534C24.0107 17.0582 24.2025 16.925 24.3688 16.755Z" fill="#9656A1"/>
</svg>
