<svg width="36" height="36" viewBox="0 0 36 36" fill="none" xmlns="http://www.w3.org/2000/svg">
<path fill-rule="evenodd" clip-rule="evenodd" d="M13.8353 7.67123C13.2144 7.56737 12.5866 7.5 12 7.5C10.5734 7.5 8.90312 7.89844 7.6813 8.25115C7.05078 8.43317 6.50073 8.61476 6.10768 8.75102C5.91074 8.81929 5.75213 8.87656 5.64132 8.91731C5.58589 8.9377 5.54233 8.95398 5.51184 8.96548L5.47601 8.97905L5.4657 8.983L5.4606 8.98496C4.8818 9.20801 4.5 9.76432 4.5 10.3846V27C4.5 27.4944 4.7436 27.957 5.15121 28.2368C5.55874 28.5164 6.07829 28.5773 6.53953 28.3996L6.54475 28.3976L6.57003 28.388C6.59334 28.3793 6.62933 28.3658 6.67684 28.3483C6.77192 28.3133 6.91281 28.2624 7.09031 28.2009C7.44615 28.0776 7.94477 27.913 8.51335 27.7488C9.68974 27.4093 11.0195 27.1154 12 27.1154C12.9805 27.1154 14.3103 27.4093 15.4866 27.7488C16.0552 27.913 16.5538 28.0776 16.9097 28.2009C17.0872 28.2624 17.2281 28.3133 17.3232 28.3483C17.3707 28.3658 17.4067 28.3793 17.43 28.388L17.4553 28.3976L17.4609 28.3998C17.8133 28.5355 18.1995 28.5319 18.5438 28.398L18.5447 28.3976L18.57 28.388L18.5882 28.3812C18.6106 28.3728 18.6403 28.3618 18.6768 28.3483C18.7719 28.3133 18.9128 28.2624 19.0903 28.2009C19.4462 28.0776 19.9448 27.913 20.5134 27.7488C21.6897 27.4093 23.0195 27.1154 24 27.1154C24.9805 27.1154 26.3103 27.4093 27.4866 27.7488C28.0552 27.913 28.5538 28.0776 28.9097 28.2009C29.0872 28.2624 29.2281 28.3133 29.3232 28.3483L29.4011 28.3772L29.43 28.388L29.4553 28.3976L29.4609 28.3998C29.9221 28.5774 30.4413 28.5164 30.8488 28.2368C31.2564 27.957 31.5 27.4944 31.5 27V20.8946C30.5715 21.4317 29.5643 21.848 28.5 22.1219V24.9195C28.4404 24.9019 28.3799 24.8842 28.3187 24.8665C27.0969 24.5138 25.4266 24.1154 24 24.1154C22.5734 24.1154 20.9031 24.5138 19.6813 24.8665C19.6201 24.8842 19.5596 24.9019 19.5 24.9195V20.8946C18.3708 20.2414 17.3579 19.4095 16.5 18.4375V24.9195C16.4404 24.9019 16.3799 24.8842 16.3187 24.8665C15.0969 24.5138 13.4266 24.1154 12 24.1154C10.5734 24.1154 8.90312 24.5138 7.6813 24.8665C7.62008 24.8842 7.55963 24.9019 7.5 24.9195V11.447C7.79336 11.3503 8.13812 11.2418 8.51335 11.1335C9.68974 10.7939 11.0195 10.5 12 10.5C12.4442 10.5 12.9602 10.5603 13.501 10.6579C13.5003 10.6053 13.5 10.5527 13.5 10.5C13.5 9.52559 13.6161 8.5783 13.8353 7.67123ZM13.8915 13.5516C13.7667 13.518 13.6355 13.5 13.5001 13.5H10.4999C9.67146 13.5001 8.99993 14.1717 9 15.0001C9.00007 15.8286 9.67172 16.5001 10.5001 16.5H13.4999C14.02 16.5 14.4783 16.2354 14.7474 15.8334C14.3884 15.1111 14.1001 14.3475 13.8915 13.5516ZM13.5001 18H10.4999C9.67146 18.0001 8.99993 18.6717 9 19.5001C9.00007 20.3286 9.67172 21.0001 10.5001 21H13.4999C14.3283 21.0001 14.9999 20.3286 15 19.5001C15.0001 18.6717 14.3286 18.0001 13.5001 18Z" fill="#9656A1"/>
<path fill-rule="evenodd" clip-rule="evenodd" d="M25.5 19.5C30.4706 19.5 34.5 15.4706 34.5 10.5C34.5 5.52944 30.4706 1.5 25.5 1.5C20.5294 1.5 16.5 5.52944 16.5 10.5C16.5 15.4706 20.5294 19.5 25.5 19.5ZM27 6C27 5.17157 26.3284 4.5 25.5 4.5C24.6716 4.5 24 5.17157 24 6V11.5263C24 12.0311 24.2539 12.502 24.6756 12.7794L27.6756 14.7531C28.3677 15.2084 29.2978 15.0165 29.7531 14.3244C30.2084 13.6323 30.0165 12.7022 29.3244 12.2469L27 10.7176V6Z" fill="#FF6F61"/>
</svg>
