<svg width="46" height="46" viewBox="0 0 46 46" fill="none" xmlns="http://www.w3.org/2000/svg">
<rect width="46" height="46" fill="white"/>
<path fill-rule="evenodd" clip-rule="evenodd" d="M24.5155 37.046H27.0448C28.1494 37.046 29.0448 37.9414 29.0448 39.046V40.0655H16.9668V39.046C16.9668 37.9414 17.8622 37.046 18.9668 37.046H21.496V35.9685V35.5371H24.5155V37.046Z" fill="#FF6F61"/>
<path fill-rule="evenodd" clip-rule="evenodd" d="M12.1045 12.8916H33.9048L33.2996 15.9111H38.3332L38.087 17.6344C37.0093 25.178 34.7225 29.3086 30.8277 29.4925L30.5836 29.4974L30.4056 30.3871C29.9999 32.416 28.2758 33.9001 26.2326 34.0203L25.9643 34.0281H20.0449C17.9759 34.0281 16.1825 32.6286 15.664 30.6486L15.6036 30.3871L15.424 29.4988C11.5693 29.4781 9.24416 25.7001 8.0838 18.6842L8.00289 18.1775L7.6665 15.9111H12.7081L12.1045 12.8916ZM34.8171 18.9296H33.3707L32.4392 25.4502L32.55 25.3169C33.3864 24.2436 34.1067 22.4098 34.6592 19.7463L34.7675 19.2025L34.8171 18.9296ZM11.1908 18.9296H12.6371L13.5687 25.4487L13.4617 25.3201L13.2961 25.0957C12.4756 23.9226 11.7737 21.983 11.2422 19.202L11.1908 18.9296Z" fill="#FF8E3C"/>
<path opacity="0.2" fill-rule="evenodd" clip-rule="evenodd" d="M17.6047 33.3138C16.6674 32.714 15.959 31.7749 15.6638 30.6476L15.6035 30.3862L15.4238 29.4978C13.1906 29.4858 11.4707 28.2127 10.1934 25.7793L12.4548 23.5178C12.7181 24.1461 12.9992 24.6705 13.2959 25.0947L13.4616 25.3192L13.5685 25.4477L13.188 22.7847L23.0821 12.8906H33.9046L33.2995 15.9101H35.0083L17.6047 33.3138Z" fill="white"/>
<path d="M23.4593 3.62241L23.0058 2.64593L22.5523 3.62241L20.5308 7.97526L15.7663 8.5527L14.6975 8.68224L15.4861 9.41528L19.0012 12.6829L18.0781 17.3927L17.871 18.4492L18.8118 17.9258L23.0058 15.5924L27.1998 17.9258L28.1406 18.4492L27.9335 17.3927L27.0104 12.6829L30.5255 9.41528L31.3141 8.68224L30.2452 8.5527L25.4808 7.97526L23.4593 3.62241Z" fill="url(#paint0_linear)" stroke="white"/>
<defs>
<linearGradient id="paint0_linear" x1="13.3372" y1="3.83678" x2="13.3447" y2="23.1741" gradientUnits="userSpaceOnUse">
<stop stop-color="#FF8E3C"/>
<stop offset="1" stop-color="#FF3939"/>
</linearGradient>
</defs>
</svg>
