<svg width="20" height="20" viewBox="0 0 20 20" fill="none" xmlns="http://www.w3.org/2000/svg">
<path fill-rule="evenodd" clip-rule="evenodd" d="M9.99973 4.16593C10.3418 4.16593 10.6597 4.06291 10.9243 3.8862L13.333 7.49926L15.111 6.43248C15.3518 7.05655 15.9574 7.49926 16.6664 7.49926C16.7181 7.49926 16.7692 7.49691 16.8197 7.4923L14.9997 14.1659H4.99965L2.85645 7.43014C3.00743 7.47511 3.16739 7.49926 3.33298 7.49926C3.98936 7.49926 4.55711 7.11983 4.82888 6.56834L6.45798 7.49926L9.03624 3.85938C9.30828 4.05244 9.64075 4.16593 9.99973 4.16593Z" fill="url(#paint0_linear)"/>
<path fill-rule="evenodd" clip-rule="evenodd" d="M9.35712 14.1663H5.00027L4.4834 12.5419L11.8104 5.21484L13.3336 7.49963L15.7219 6.06668C15.8292 6.00228 15.9405 5.96516 16.0505 5.95138C16.22 6.69589 16.0149 7.50849 15.4351 8.08829L9.35712 14.1663Z" fill="white" fill-opacity="0.2"/>
<path fill-rule="evenodd" clip-rule="evenodd" d="M10.8333 2.50033C10.8333 2.96056 10.4602 3.33366 10 3.33366C9.53976 3.33366 9.16667 2.96056 9.16667 2.50033C9.16667 2.04009 9.53976 1.66699 10 1.66699C10.4602 1.66699 10.8333 2.04009 10.8333 2.50033ZM3.33333 6.66699C3.79357 6.66699 4.16667 6.2939 4.16667 5.83366C4.16667 5.37342 3.79357 5.00033 3.33333 5.00033C2.8731 5.00033 2.5 5.37342 2.5 5.83366C2.5 6.2939 2.8731 6.66699 3.33333 6.66699ZM4.16667 15.0003C4.16667 15.9208 4.91286 16.667 5.83334 16.667H14.1667C15.0871 16.667 15.8333 15.9208 15.8333 15.0003H4.16667ZM16.6667 6.66699C17.1269 6.66699 17.5 6.2939 17.5 5.83366C17.5 5.37342 17.1269 5.00033 16.6667 5.00033C16.2064 5.00033 15.8333 5.37342 15.8333 5.83366C15.8333 6.2939 16.2064 6.66699 16.6667 6.66699Z" fill="#FF6F61"/>
<defs>
<linearGradient id="paint0_linear" x1="7.49964" y1="11.6659" x2="14.7251" y2="-0.0458576" gradientUnits="userSpaceOnUse">
<stop stop-color="#FBB03B"/>
<stop offset="0.898246" stop-color="#FD6B39"/>
</linearGradient>
</defs>
</svg>
