<svg width="315" height="150" viewBox="0 0 315 150" fill="none" xmlns="http://www.w3.org/2000/svg">
<g clip-path="url(#clip0_2_436)">
<path d="M149.423 0.48999H0.470348V149.515H149.423V0.48999Z" fill="#9656A1"/>
<path d="M314.565 0.48999H165.613V149.515H314.565V0.48999Z" fill="#9656A1"/>
<path d="M90.5533 118.538V86.7973H108.14V120.283C108.14 122.659 108.683 124.351 109.771 125.359C110.864 126.369 112.325 126.873 114.15 126.873C115.979 126.873 117.451 126.369 118.567 125.359C119.681 124.351 120.246 122.659 120.246 120.283V86.7973H137.749V118.538C137.749 122.326 137.179 125.544 136.038 128.198C134.9 130.851 133.297 133.006 131.245 134.677C129.188 136.347 126.7 137.558 123.783 138.31C120.864 139.072 117.652 139.45 114.15 139.45C110.701 139.45 107.527 139.072 104.635 138.31C101.745 137.559 99.2548 136.347 97.1768 134.677C95.0933 133.006 93.467 130.851 92.304 128.198C91.1341 125.544 90.5533 122.326 90.5533 118.538ZM59.4927 126.493C59.4927 126.844 59.6655 127.022 60.0234 127.022C60.2728 127.022 60.4027 126.844 60.4027 126.493C60.8586 123.158 61.4427 119.512 62.1534 115.546C62.8674 111.582 63.5708 107.717 64.2852 103.952C64.996 100.195 65.6812 96.7699 66.3387 93.6943C66.9993 90.6078 67.5067 88.316 67.865 86.7969H84.3078V138.087H74.4132V94.9052C74.4132 94.6503 74.2318 94.5259 73.8789 94.5259C73.6779 94.5259 73.5744 94.6503 73.5744 94.9052C73.17 96.9212 72.7355 99.183 72.2814 101.685C71.82 104.183 71.2647 107.111 70.6019 110.47C69.9431 113.831 69.1452 117.758 68.2083 122.249C67.2696 126.748 66.164 132.023 64.8957 138.087H54.6145C53.3484 132.126 52.2689 126.974 51.3803 122.629C50.4881 118.288 49.7153 114.477 49.0561 111.19C48.3991 107.91 47.8128 104.98 47.3054 102.403C46.8016 99.8281 46.2919 97.3274 45.7826 94.9057C45.7826 94.6508 45.6044 94.5263 45.2483 94.5263C45.0486 94.5263 44.9456 94.6508 44.9456 94.9057V138.087H35.8881V86.7973H52.4056C52.6605 87.907 52.9682 89.344 53.3211 91.1162C53.6721 92.8883 54.0711 94.8651 54.4983 97.0644C54.9327 99.255 55.3727 101.609 55.8341 104.103C56.2881 106.61 56.7459 109.157 57.2036 111.761C57.6613 114.361 58.078 116.913 58.461 119.415C58.8412 121.911 59.185 124.273 59.4927 126.493ZM11.0702 86.7973H16.0943V134.299H30.7103V138.087H11.0702V86.7973Z" fill="white"/>
<path d="M176.572 78.0091V67.1169H178.602V76.3938H184.016V78.0091H176.572Z" fill="white"/>
<path d="M191.429 78.2315C189.085 78.2315 186.875 77.389 186.875 73.6528V67.1169H188.912V73.8398C188.912 75.5672 189.74 76.7339 191.429 76.7339C193.089 76.7339 193.899 75.6438 193.899 73.8398V67.1169H195.935V73.6528C195.934 77.1237 193.679 78.2315 191.429 78.2315Z" fill="white"/>
<path d="M203.272 68.6575H202.116V76.4544H203.272C205.587 76.4544 206.853 75.4286 206.853 72.4866C206.853 69.9345 205.629 68.6575 203.272 68.6575ZM203.364 78.0091H200.08V67.1169H203.364C207.243 67.1169 208.977 69.3573 208.977 72.4862C208.977 76.066 206.883 78.0091 203.364 78.0091Z" fill="white"/>
<path d="M223.07 78.0091H220.908L218.797 70.3671L216.687 78.0091H214.529L211.214 67.1169H213.48L215.702 75.6438L217.798 68.0037H219.953L222.039 75.6438L224.243 67.1169H226.371L223.07 78.0091Z" fill="white"/>
<path d="M231.484 67.1169H229.45V78.0091H231.484V67.1169Z" fill="white"/>
<path d="M240.556 78.2313C237.241 78.2313 235.256 75.9555 235.256 72.47C235.256 68.7015 238.022 66.8975 240.556 66.8975C242.341 66.8975 243.497 67.4582 244.234 68.112L243.402 69.6366C242.809 68.9668 241.999 68.3596 240.556 68.3596C238.725 68.3596 237.365 69.9963 237.365 72.47C237.365 75.0058 238.725 76.7656 240.649 76.7656C241.76 76.7656 242.403 76.4843 242.667 76.2386V73.4657H240.227V71.9717H244.625V77.2024C243.683 77.7773 242.417 78.2313 240.556 78.2313Z" fill="white"/>
<path d="M251.694 72.4543H247.423V73.8098H251.694V72.4543Z" fill="white"/>
<path d="M186.444 98.0259L186.07 89.7448L183.297 96.5301H181.45L178.62 89.7448L178.291 98.0259H176.305L176.946 87.127H179.482L182.467 94.3481L185.302 87.127H187.835L188.474 98.0259H186.444Z" fill="white"/>
<path d="M196.483 89.1535L194.779 93.9154H198.219L196.483 89.1535ZM199.704 98.0259L198.75 95.3762H194.279L193.311 98.0259H191.165L195.514 87.127H197.644L201.959 98.0259H199.704Z" fill="white"/>
<path d="M211.952 98.0259L208.995 93.6305L205.98 98.0259H203.538L207.731 92.3767L203.866 87.127H206.417L209.107 91.1731L211.734 87.127H214.176L210.325 92.3767L214.502 98.0259H211.952Z" fill="white"/>
<path d="M219.526 87.127H217.49V98.0259H219.526V87.127Z" fill="white"/>
<path d="M233.761 98.0259L233.381 89.7448L230.613 96.5301H228.767L225.937 89.7448L225.608 98.0259H223.622L224.264 87.127H226.799L229.784 94.3481L232.617 87.127H235.153L235.791 98.0259H233.761Z" fill="white"/>
<path d="M241.92 87.127H239.89V98.0259H241.92V87.127Z" fill="white"/>
<path d="M253.731 98.0259V96.4051H248.321V87.127H246.285V98.0259H253.731Z" fill="white"/>
<path d="M259.222 87.127H257.192V98.0259H259.222V87.127Z" fill="white"/>
<path d="M267.562 89.1535L265.856 93.9154H269.296L267.562 89.1535ZM270.782 98.0259L269.827 95.3762H265.354L264.385 98.0259H262.243L266.588 87.127H268.716L273.037 98.0259H270.782Z" fill="white"/>
<path d="M282.559 98.0259L277.994 89.9016V98.0259H275.989V87.127H278.649L283.219 95.2512V87.127H285.218V98.0259H282.559Z" fill="white"/>
<path d="M296.809 95.0021C296.809 93.3567 295.81 92.5767 294.574 92.046L292.416 91.1305C291.741 90.8492 291.038 90.4749 291.038 89.6953C291.038 89.0721 291.586 88.3741 292.79 88.3741C294.153 88.3741 294.918 88.9795 295.544 89.7455L296.406 88.3919C295.618 87.4568 294.246 86.9102 292.79 86.9102C291.038 86.9102 288.956 87.9378 288.956 90.0391C288.956 91.3799 289.862 92.2653 291.038 92.764L293.196 93.6813C294.04 94.041 294.681 94.4436 294.681 95.3021C294.681 96.0001 294.04 96.7801 292.665 96.7801C291.273 96.7801 290.368 96.1569 289.581 95.2702L288.724 96.6379C289.239 97.247 290.475 98.2409 292.633 98.2409C295.917 98.2399 296.809 96.1241 296.809 95.0021Z" fill="white"/>
<path d="M303.691 92.4663H299.422V93.8235H303.691V92.4663Z" fill="white"/>
<path d="M180.97 118.258C178.621 118.258 176.418 117.412 176.418 113.681V107.141H178.448V113.862C178.448 115.59 179.278 116.761 180.97 116.761C182.624 116.761 183.44 115.671 183.44 113.862V107.141H185.47V113.681C185.47 117.15 183.222 118.258 180.97 118.258Z" fill="white"/>
<path d="M196.189 118.035L191.619 109.908V118.035H189.615V107.141H192.276L196.844 115.265V107.141H198.843V118.035H196.189Z" fill="white"/>
<path d="M205.243 107.141H203.207V118.035H205.243V107.141Z" fill="white"/>
<path d="M214.452 118.035H212.297L207.945 107.141H210.245L213.422 115.982L216.598 107.141H218.803L214.452 118.035Z" fill="white"/>
<path d="M221.818 118.035V107.141H229.155V108.73H223.853V111.594H228.735V113.15H223.853V116.42H229.362V118.035H221.818Z" fill="white"/>
<path d="M236.633 108.68H234.878V111.843H236.633C238.2 111.843 238.588 111.081 238.588 110.176C238.588 109.353 237.945 108.68 236.633 108.68ZM239.151 118.035L236.948 114.753C236.384 113.912 235.897 113.334 235.385 113.334H234.879V118.035H232.849V107.141H237.025C238.948 107.141 240.684 108.151 240.684 110.176C240.684 112.229 238.838 112.995 237.899 113.102C238.214 113.303 238.619 113.832 238.761 114.037L241.579 118.035H239.151Z" fill="white"/>
<path d="M247.646 118.257C245.486 118.257 244.252 117.256 243.734 116.654L244.594 115.282C245.379 116.169 246.286 116.792 247.677 116.792C249.054 116.792 249.695 116.012 249.695 115.314C249.695 114.454 249.054 114.05 248.209 113.693L246.051 112.774C244.876 112.276 243.969 111.391 243.969 110.049C243.969 107.948 246.051 106.92 247.802 106.92C249.258 106.92 250.631 107.463 251.417 108.398L250.557 109.752C249.932 108.992 249.166 108.386 247.802 108.386C246.598 108.386 246.051 109.084 246.051 109.707C246.051 110.487 246.754 110.861 247.428 111.141L249.583 112.059C250.819 112.589 251.823 113.367 251.823 115.015C251.822 116.137 250.93 118.257 247.646 118.257Z" fill="white"/>
<path d="M257.518 107.141H255.482V118.035H257.518V107.141Z" fill="white"/>
<path d="M266.258 108.762V118.035H264.228V108.762H260.55V107.141H269.934V108.762H266.258Z" fill="white"/>
<path d="M278.413 106.147C277.832 106.147 277.351 105.648 277.351 105.1C277.351 104.558 277.82 104.06 278.413 104.06C279.006 104.06 279.476 104.558 279.476 105.1C279.476 105.648 278.995 106.147 278.413 106.147ZM276.878 109.165L275.174 113.925H278.614L276.878 109.165ZM275.392 106.147C274.815 106.147 274.331 105.648 274.331 105.1C274.331 104.558 274.797 104.06 275.392 104.06C275.989 104.06 276.459 104.558 276.459 105.1C276.459 105.648 275.971 106.147 275.392 106.147ZM280.105 118.035L279.15 115.39H274.673L273.706 118.035H271.564L275.909 107.141H278.039L282.354 118.035H280.105Z" fill="white"/>
<path d="M289.687 108.762V118.035H287.657V108.762H283.983V107.141H293.367V108.762H289.687Z" fill="white"/>
<path d="M186.444 138.046L186.07 129.77L183.297 136.555H181.45L178.62 129.77L178.291 138.046H176.305L176.946 127.152H179.482L182.467 134.373L185.302 127.152H187.835L188.474 138.046H186.444Z" fill="white"/>
<path d="M198.269 126.155C197.687 126.155 197.202 125.657 197.202 125.114C197.202 124.571 197.674 124.072 198.269 124.072C198.86 124.072 199.348 124.571 199.348 125.114C199.348 125.657 198.843 126.155 198.269 126.155ZM195.247 126.155C194.671 126.155 194.185 125.657 194.185 125.114C194.185 124.571 194.654 124.072 195.247 124.072C195.84 124.072 196.328 124.571 196.328 125.114C196.328 125.657 195.827 126.155 195.247 126.155ZM196.908 138.266C194.559 138.266 192.356 137.429 192.356 133.689V127.153H194.386V133.879C194.386 135.607 195.216 136.775 196.908 136.775C198.563 136.775 199.378 135.683 199.378 133.879V127.153H201.408V133.689C201.409 137.161 199.161 138.266 196.908 138.266Z" fill="white"/>
<path d="M212.128 138.046L207.558 129.925V138.046H205.554V127.152H208.215L212.783 135.278V127.152H214.782V138.046H212.128Z" fill="white"/>
<path d="M223.684 138.266C220.151 138.266 218.491 135.528 218.491 132.522C218.491 129.58 220.507 126.934 223.684 126.934C225.252 126.934 226.469 127.45 227.299 128.319L226.5 129.833C225.889 129.147 225.283 128.429 223.716 128.429C221.868 128.429 220.619 130.221 220.619 132.522C220.619 134.78 221.964 136.775 223.734 136.775C225.035 136.775 225.889 136.337 226.812 135.354L227.594 136.912C226.327 137.879 225.408 138.266 223.684 138.266Z" fill="white"/>
<path d="M237.682 138.046V133.113H232.804V138.046H230.77V127.152H232.804V131.622H237.682V127.152H239.716V138.046H237.682Z" fill="white"/>
<path d="M244.02 138.046V127.152H251.355V128.743H246.054V131.604H250.933V133.163H246.054V136.431H251.559V138.046H244.02Z" fill="white"/>
<path d="M261.617 138.046L257.049 129.925V138.046H255.046V127.152H257.703L262.274 135.278V127.152H264.278V138.046H261.617Z" fill="white"/>
</g>
<defs>
<clipPath id="clip0_2_436">
<rect width="314.516" height="150" fill="white"/>
</clipPath>
</defs>
</svg>
