<svg width="633" height="150" viewBox="0 0 633 150" fill="none" xmlns="http://www.w3.org/2000/svg">
<g clip-path="url(#clip0_2_5)">
<path d="M318.135 0.676025V32.6902H310.666L311.152 9.88123L311.241 6.66384L310.976 7.79748C310.578 9.60916 310.534 9.83373 310.18 11.1963L304.302 32.6902H297.584L291.925 12.1032L290.555 6.3896C290.687 8.92897 290.687 9.47096 290.82 12.5135L291.218 32.6902H283.662V0.676025H295.063L299.838 18.633L300.941 23.7571C301.383 21.5351 301.427 21.3084 301.781 19.812L306.775 0.676025H318.135Z" fill="#9656A1"/>
<path d="M324.102 15.7308C324.232 14.0983 324.453 12.1506 326.53 10.4707C328.652 8.74753 331.394 8.38477 334.088 8.38477C336.919 8.38477 343.767 9.06711 343.767 15.1866V28.9739C343.767 31.5111 343.9 31.8739 344.432 32.6901H337.756V30.5135C336.035 31.8286 334.088 33.325 330.687 33.325C325.379 33.325 323.127 29.4252 323.127 26.115C323.127 22.3059 326.088 20.1293 327.991 19.3153C329.845 18.4969 334.221 17.6807 337.096 17.1365V15.8668C337.005 14.7785 336.919 12.9647 334.486 12.9647C331.48 12.9647 331.083 14.8692 330.904 15.7308H324.102ZM332.718 22.8501C331.571 23.3057 329.801 23.9837 329.801 25.7976C329.801 26.9312 330.773 28.2009 332.364 28.2009C333.206 28.2009 334 27.8856 334.707 27.43C336.961 25.9789 337.049 23.8024 337.096 21.3537L332.718 22.8501Z" fill="#9656A1"/>
<path d="M351.148 24.7093C353.002 26.5685 355.304 27.9742 357.866 27.9742C359.501 27.9742 361.976 27.4301 361.976 25.6616C361.976 24.8454 361.49 24.5279 361.092 24.3012C360.076 23.7571 358.487 23.621 357.159 23.3943C356.142 23.2129 355.083 22.9862 354.063 22.6688C352.648 22.2585 351.234 21.6733 350.22 20.626C349.205 19.5852 348.498 17.9528 348.498 16.1865C348.498 12.2846 351.764 8.24878 358.219 8.24878C363.658 8.24878 366.926 10.6521 368.517 11.7879L364.318 15.7762C362.153 14.053 360.12 13.4204 358.527 13.4204C355.877 13.4204 355.26 14.5065 355.26 15.1867C355.26 16.5492 356.719 16.8191 358.926 17.2273C363.567 18.0888 368.959 19.3585 368.959 24.9836C368.959 30.5589 363.481 33.2797 358.042 33.2797C351.634 33.2797 348.321 30.1055 346.861 28.6998L351.148 24.7093Z" fill="#9656A1"/>
<path d="M374.174 24.7093C376.031 26.5685 378.329 27.9742 380.892 27.9742C382.53 27.9742 385.003 27.4301 385.003 25.6616C385.003 24.8454 384.516 24.5279 384.119 24.3012C383.1 23.7571 381.509 23.621 380.185 23.3943C379.169 23.2129 378.108 22.9862 377.091 22.6688C375.677 22.2585 374.263 21.6733 373.246 20.626C372.23 19.5852 371.523 17.9528 371.523 16.1865C371.523 12.2846 374.793 8.24878 381.246 8.24878C386.682 8.24878 389.953 10.6521 391.544 11.7879L387.347 15.7762C385.179 14.053 383.146 13.4204 381.555 13.4204C378.903 13.4204 378.285 14.5065 378.285 15.1867C378.285 16.5492 379.743 16.8191 381.953 17.2273C386.594 18.0888 391.986 19.3585 391.986 24.9836C391.986 30.5589 386.505 33.2797 381.069 33.2797C374.661 33.2797 371.346 30.1055 369.887 28.6998L374.174 24.7093Z" fill="#9656A1"/>
<path d="M395.919 15.7308C396.052 14.0983 396.273 12.1506 398.35 10.4707C400.471 8.74753 403.214 8.38477 405.907 8.38477C408.738 8.38477 415.587 9.06711 415.587 15.1866V28.9739C415.587 31.5111 415.719 31.8739 416.247 32.6901H409.576V30.5135C407.854 31.8286 405.907 33.325 402.504 33.325C397.199 33.325 394.947 29.4252 394.947 26.115C394.947 22.3059 397.906 20.1293 399.808 19.3153C401.665 18.4969 406.04 17.6807 408.915 17.1365V15.8668C408.824 14.7785 408.738 12.9647 406.303 12.9647C403.3 12.9647 402.902 14.8692 402.723 15.7308H395.919ZM404.537 22.8501C403.39 23.3057 401.62 23.9837 401.62 25.7976C401.62 26.9312 402.593 28.2009 404.184 28.2009C405.021 28.2009 405.819 27.8856 406.526 27.43C408.78 25.9789 408.869 23.8024 408.915 21.3537L404.537 22.8501Z" fill="#9656A1"/>
<path d="M441.925 27.1126C441.088 28.473 440.158 29.9694 438.303 31.3298C436.538 32.5994 434.279 33.461 431.674 33.461C427.254 33.461 420.227 30.7403 420.227 21.0816C420.227 14.189 424.114 8.38477 431.807 8.38477C434.368 8.38477 438.745 9.10814 441.662 14.053L436.624 17.0005C436.226 16.1389 435.784 15.3205 434.679 14.5065C434.016 14.053 433.177 13.6902 432.116 13.6902C428.448 13.6902 427.21 18.0002 427.21 20.8549C427.21 23.9837 428.713 27.9267 432.337 27.9267C432.69 27.9267 434.368 27.9267 435.784 26.2942C436.361 25.6162 436.578 25.072 436.801 24.394L441.925 27.1126Z" fill="#9656A1"/>
<path d="M449.803 0.633057V11.5139C450.775 10.5185 452.766 8.38504 456.433 8.38504C458.114 8.38504 459.968 8.88384 461.341 10.0628C463.374 11.8313 463.725 14.0533 463.725 17.1368V32.6904H456.963V20.311C456.963 18.4065 456.919 17.4996 456.654 16.6833C455.993 14.5521 454.181 14.3253 453.474 14.3253C452.28 14.3253 451.262 14.917 450.689 15.6857C449.803 16.9101 449.803 18.8599 449.803 20.9005V32.6904H442.999V0.633057H449.803Z" fill="#9656A1"/>
<path d="M483.481 9.01978H490.289V32.6903H483.481V30.4252C482.818 31.1939 482.418 31.6474 481.183 32.2844C479.813 33.0099 478.312 33.3727 476.807 33.3727C475.307 33.3727 472.52 33.1438 470.929 30.8765C469.738 29.1555 469.517 27.7454 469.517 23.8932V9.01978H476.365V23.7097C476.365 24.7569 476.365 25.7977 476.894 26.5233C477.293 27.0674 478.222 27.7044 479.592 27.7044C479.989 27.7044 480.92 27.7044 481.934 27.1128C483.393 26.2058 483.439 25.0269 483.481 23.7572V9.01978Z" fill="#9656A1"/>
<path d="M497.58 24.7093C499.436 26.5685 501.734 27.9742 504.3 27.9742C505.931 27.9742 508.406 27.4301 508.406 25.6616C508.406 24.8454 507.922 24.5279 507.524 24.3012C506.507 23.7571 504.916 23.621 503.59 23.3943C502.574 23.2129 501.513 22.9862 500.497 22.6688C499.082 22.2585 497.668 21.6733 496.652 20.626C495.635 19.5852 494.928 17.9528 494.928 16.1865C494.928 12.2846 498.201 8.24878 504.651 8.24878C510.087 8.24878 513.36 10.6521 514.951 11.7879L510.75 15.7762C508.583 14.053 506.552 13.4204 504.961 13.4204C502.311 13.4204 501.69 14.5065 501.69 15.1867C501.69 16.5492 503.148 16.8191 505.36 17.2273C509.999 18.0888 515.389 19.3585 515.389 24.9836C515.389 30.5589 509.911 33.2797 504.474 33.2797C498.066 33.2797 494.751 30.1055 493.291 28.6998L497.58 24.7093Z" fill="#9656A1"/>
<path d="M540.983 26.6573C540.185 27.8859 539.39 29.0628 538.196 30.1964C536.205 32.1031 533.2 33.5542 529.49 33.5542C522.639 33.5542 517.824 29.0628 517.824 21.3086C517.824 15.595 520.562 8.24902 529.666 8.24902C531.036 8.24902 535.014 8.38506 537.975 11.65C540.983 14.958 541.16 19.5855 541.246 22.2587H524.763C524.716 25.2084 526.352 28.1559 530.02 28.1559C533.73 28.1559 535.014 25.6618 535.854 23.984L540.983 26.6573ZM534.221 17.9077C534.086 16.9101 533.909 15.5951 532.937 14.5521C532.097 13.6905 530.815 13.2392 529.622 13.2392C527.987 13.2392 526.838 14.0533 526.175 14.7788C525.247 15.8218 525.026 16.9101 524.803 17.9077H534.221Z" fill="#9656A1"/>
<path d="M546.017 2.17261H552.779V9.56398H557.245V13.8265H552.737V24.4849C552.693 25.9338 552.693 27.1582 554.505 27.1582L556.936 27.0675V32.5068C555.475 32.7357 554.591 32.8717 553.356 32.8717C551.011 32.8717 548.448 32.7357 546.991 30.5591C546.063 29.1555 546.017 27.4756 546.017 25.2083V13.7833H542.66V9.51863H546.017V2.17261Z" fill="#9656A1"/>
<path d="M559.897 2.17261H566.659V9.56398H571.12V13.8265H566.612V24.4849C566.57 25.9338 566.57 27.1582 568.382 27.1582L570.811 27.0675V32.5068C569.353 32.7357 568.469 32.8717 567.231 32.8717C564.889 32.8717 562.325 32.7357 560.869 30.5591C559.939 29.1555 559.897 27.4756 559.897 25.2083V13.7833H556.536V9.51863H559.897V2.17261Z" fill="#9656A1"/>
<path d="M575.896 24.7093C577.75 26.5685 580.049 27.9742 582.612 27.9742C584.247 27.9742 586.722 27.4301 586.722 25.6616C586.722 24.8454 586.236 24.5279 585.84 24.3012C584.822 23.7571 583.231 23.621 581.907 23.3943C580.888 23.2129 579.828 22.9862 578.811 22.6688C577.397 22.2585 575.985 21.6733 574.968 20.626C573.949 19.5852 573.244 17.9528 573.244 16.1865C573.244 12.2846 576.513 8.24878 582.968 8.24878C588.402 8.24878 591.674 10.6521 593.263 11.7879L589.063 15.7762C586.899 14.053 584.866 13.4204 583.275 13.4204C580.625 13.4204 580.006 14.5065 580.006 15.1867C580.006 16.5492 581.463 16.8191 583.675 17.2273C588.315 18.0888 593.705 19.3585 593.705 24.9836C593.705 30.5589 588.225 33.2797 582.791 33.2797C576.382 33.2797 573.065 30.1055 571.607 28.6998L575.896 24.7093Z" fill="#9656A1"/>
<path d="M291.395 87.1084H283.616V55.092H291.395V87.1084Z" fill="#9656A1"/>
<path d="M304.432 65.5662C305.095 64.8407 305.537 64.2965 306.731 63.707C307.791 63.2536 309.294 62.8455 310.929 62.8455C312.299 62.8455 313.846 63.1175 315.039 63.7977C317.47 65.1128 318.089 67.244 318.089 70.9149V87.1077H311.329V73.7738C311.329 71.6404 311.283 70.8717 311.02 70.2368C310.487 68.9672 309.294 68.423 307.968 68.423C304.388 68.423 304.388 71.3705 304.388 74.3201V87.1077H297.582V63.4803H304.432V65.5662Z" fill="#9656A1"/>
<path d="M325.379 79.1224C327.237 80.9838 329.536 82.3895 332.099 82.3895C333.734 82.3895 336.209 81.8454 336.209 80.0769C336.209 79.2606 335.721 78.9411 335.325 78.7187C334.307 78.1723 332.718 78.0363 331.394 77.8096C330.373 77.6282 329.312 77.4015 328.298 77.0862C326.884 76.6759 325.469 76.0864 324.453 75.0435C323.434 74.0005 322.729 72.3681 322.729 70.5996C322.729 66.6998 326 62.6641 332.453 62.6641C337.889 62.6641 341.159 65.0674 342.75 66.201L338.552 70.1915C336.386 68.4705 334.353 67.8335 332.762 67.8335C330.11 67.8335 329.489 68.9218 329.489 69.602C329.489 70.9624 330.95 71.2344 333.162 71.6404C337.8 72.5041 343.19 73.7738 343.19 79.3967C343.19 84.9742 337.712 87.695 332.276 87.695C325.869 87.695 322.552 84.5208 321.092 83.1172L325.379 79.1224Z" fill="#9656A1"/>
<path d="M348.054 56.5874H354.816V63.9788H359.28V68.2413H354.772V78.8997C354.73 80.3508 354.73 81.573 356.538 81.573L358.971 81.4844V86.9259C357.512 87.1526 356.628 87.2887 355.391 87.2887C353.048 87.2887 350.485 87.1526 349.026 84.9739C348.098 83.5682 348.054 81.8904 348.054 79.6252V68.1959H344.695V63.9334H348.054V56.5874Z" fill="#9656A1"/>
<path d="M362.947 55.0469H369.667V60.4431H362.947V55.0469ZM362.947 63.3884H369.667V87.1086H362.947V63.3884Z" fill="#9656A1"/>
<path d="M376.605 56.5874H383.367V63.9788H387.831V68.2413H383.323V78.8997C383.277 80.3508 383.277 81.573 385.089 81.573L387.522 81.4844V86.9259C386.063 87.1526 385.177 87.2887 383.94 87.2887C381.597 87.2887 379.034 87.1526 377.575 84.9739C376.647 83.5682 376.605 81.8904 376.605 79.6252V68.1959H373.244V63.9334H376.605V56.5874Z" fill="#9656A1"/>
<path d="M405.198 63.4348H412.004V87.1075H405.198V84.838C404.537 85.6089 404.137 86.0602 402.9 86.6972C401.53 87.4228 400.027 87.7855 398.527 87.7855C397.022 87.7855 394.239 87.5588 392.646 85.2937C391.453 83.5684 391.232 82.1626 391.232 78.3082V63.4348H398.082V78.1269C398.082 79.1698 398.082 80.2149 398.613 80.9383C399.013 81.4846 399.941 82.1173 401.309 82.1173C401.707 82.1173 402.637 82.1173 403.653 81.5278C405.112 80.6209 405.156 79.4419 405.198 78.1722V63.4348Z" fill="#9656A1"/>
<path d="M418.943 56.5874H425.705V63.9788H430.169V68.2413H425.661V78.8997C425.617 80.3508 425.617 81.573 427.429 81.573L429.862 81.4844V86.9259C428.401 87.1526 427.517 87.2887 426.28 87.2887C423.937 87.2887 421.374 87.1526 419.916 84.9739C418.99 83.5682 418.943 81.8904 418.943 79.6252V68.1959H415.586V63.9334H418.943V56.5874Z" fill="#9656A1"/>
<path d="M455.317 81.0766C454.522 82.2988 453.726 83.4778 452.531 84.6093C450.542 86.516 447.536 87.967 443.826 87.967C436.976 87.967 432.16 83.4778 432.16 75.7237C432.16 70.0101 434.896 62.6641 444.003 62.6641C445.373 62.6641 449.351 62.8023 452.312 66.065C455.317 69.3752 455.496 74.0005 455.582 76.6759H439.097C439.053 79.6256 440.688 82.5709 444.356 82.5709C448.067 82.5709 449.351 80.0769 450.19 78.3991L455.317 81.0766ZM448.555 72.3227C448.422 71.3251 448.244 70.0101 447.273 68.9671C446.431 68.1056 445.15 67.6521 443.956 67.6521C442.323 67.6521 441.174 68.4705 440.511 69.196C439.583 70.2368 439.36 71.3251 439.139 72.3227H448.555Z" fill="#9656A1"/>
<path d="M494.694 75.2265C494.694 81.2099 491.338 87.7851 482.321 87.7851C475.824 87.7851 469.9 83.976 469.9 75.2265C469.9 67.969 474.364 62.21 483.205 62.7088C492.617 63.253 494.694 70.9143 494.694 75.2265ZM477.902 70.5537C477.062 71.914 476.751 73.5465 476.751 75.1789C476.751 78.9405 478.52 82.2507 482.321 82.2507C485.988 82.2507 487.8 79.2147 487.8 75.4985C487.8 72.8685 487.183 70.8257 485.901 69.5582C484.487 68.1957 482.896 68.1503 481.922 68.241C479.977 68.3771 478.83 69.0551 477.902 70.5537" fill="#9656A1"/>
<path d="M500.219 61.0768C500.219 59.8978 500.307 58.3107 501.191 57.041C502.033 55.8642 503.933 54.6355 507.116 54.6355C508.483 54.6355 509.856 54.8644 511.179 55.0458V60.2627H509.544C506.981 60.2627 506.848 60.8047 506.892 63.9789H511.445V68.2414H506.939V87.1074H500.175V68.2414H496.55V63.9789H500.219V61.0768Z" fill="#9656A1"/>
<path d="M275.661 109.461H299.706V115.811H291.616V141.52H283.795V115.811H275.661V109.461Z" fill="#9656A1"/>
<path d="M321.151 135.489C320.353 136.714 319.558 137.893 318.365 139.026C316.374 140.931 313.368 142.382 309.658 142.382C302.807 142.382 297.99 137.893 297.99 130.136C297.99 124.425 300.73 117.079 309.835 117.079C311.205 117.079 315.182 117.215 318.144 120.48C321.151 123.79 321.328 128.415 321.414 131.091H304.929C304.885 134.038 306.52 136.986 310.188 136.986C313.899 136.986 315.182 134.492 316.022 132.816L321.151 135.489ZM314.389 126.738C314.254 125.738 314.077 124.425 313.105 123.382C312.265 122.52 310.984 122.067 309.79 122.067C308.155 122.067 307.006 122.883 306.343 123.609C305.415 124.652 305.194 125.738 304.973 126.738H314.389" fill="#9656A1"/>
<path d="M345.501 135.943C344.662 137.303 343.733 138.799 341.875 140.16C340.107 141.432 337.855 142.291 335.246 142.291C330.826 142.291 323.801 139.57 323.801 129.914C323.801 123.017 327.69 117.215 335.38 117.215C337.942 117.215 342.319 117.94 345.234 122.883L340.198 125.831C339.8 124.971 339.356 124.153 338.251 123.337C337.59 122.883 336.75 122.52 335.69 122.52C332.021 122.52 330.784 126.83 330.784 129.685C330.784 132.816 332.287 136.759 335.911 136.759C336.264 136.759 337.942 136.759 339.356 135.126C339.93 134.446 340.154 133.902 340.374 133.222L345.501 135.943Z" fill="#9656A1"/>
<path d="M353.377 109.461V120.344C354.349 119.346 356.34 117.215 360.006 117.215C361.685 117.215 363.542 117.714 364.914 118.893C366.945 120.661 367.298 122.883 367.298 125.967V141.52H360.536V129.141C360.536 127.236 360.492 126.329 360.229 125.515C359.562 123.382 357.754 123.155 357.045 123.155C355.852 123.155 354.835 123.745 354.26 124.516C353.377 125.738 353.377 127.69 353.377 129.732V141.52H346.572V109.461H353.377Z" fill="#9656A1"/>
<path d="M380.204 119.981C380.869 119.255 381.309 118.711 382.504 118.122C383.565 117.668 385.066 117.26 386.701 117.26C388.069 117.26 389.62 117.53 390.811 118.215C393.242 119.528 393.861 121.659 393.861 125.334V141.52H387.099V128.189C387.099 126.057 387.054 125.286 386.791 124.652C386.259 123.382 385.066 122.836 383.742 122.836C380.162 122.836 380.162 125.785 380.162 128.733V141.52H373.354V117.895H380.204V119.981Z" fill="#9656A1"/>
<path d="M423.163 129.64C423.163 135.623 419.804 142.2 410.788 142.2C404.289 142.2 398.369 138.391 398.369 129.64C398.369 122.384 402.83 116.625 411.672 117.126C421.086 117.668 423.163 125.334 423.163 129.64ZM406.368 124.971C405.526 126.329 405.219 127.962 405.219 129.594C405.219 133.358 406.987 136.67 410.788 136.67C414.456 136.67 416.268 133.63 416.268 129.914C416.268 127.282 415.65 125.241 414.368 123.971C412.954 122.613 411.365 122.566 410.39 122.654C408.446 122.795 407.294 123.473 406.368 124.971" fill="#9656A1"/>
<path d="M434.39 141.521H427.585V109.51H434.39V141.521Z" fill="#9656A1"/>
<path d="M463.691 129.64C463.691 135.623 460.332 142.2 451.314 142.2C444.819 142.2 438.897 138.391 438.897 129.64C438.897 122.384 443.361 116.625 452.2 117.126C461.614 117.668 463.691 125.334 463.691 129.64ZM446.897 124.971C446.057 126.329 445.748 127.962 445.748 129.594C445.748 133.358 447.515 136.67 451.314 136.67C454.985 136.67 456.797 133.63 456.797 129.914C456.797 127.282 456.178 125.241 454.894 123.971C453.48 122.613 451.891 122.566 450.921 122.654C448.974 122.795 447.825 123.473 446.897 124.971" fill="#9656A1"/>
<path d="M482.121 138.392C480.795 139.299 479.16 140.387 476.022 140.387C474.122 140.387 472.263 139.888 470.761 138.845C467.667 136.805 466.474 133.132 466.474 129.05C466.474 124.287 468.641 117.442 476.285 117.442C479.823 117.442 481.456 119.029 482.475 120.029V117.805H488.837V140.568C488.749 143.153 488.662 146.191 485.305 148.189C482.961 149.64 479.514 150 477.436 150C472.84 150 469.835 148.37 468.597 147.053C466.785 145.194 466.827 142.79 466.827 141.521H473.856C473.945 142.566 474.033 144.06 475.845 144.921C476.285 145.148 476.95 145.375 478.011 145.375C482.121 145.375 482.121 142.883 482.121 140.931V138.392ZM473.503 129.005C473.503 131.002 473.635 135.127 477.834 135.127C481.279 135.127 482.075 132.363 482.075 129.005C482.075 127.871 481.986 125.516 481.237 124.38C480.707 123.518 479.469 122.566 477.523 122.655C474.298 122.795 473.503 125.649 473.503 129.005" fill="#9656A1"/>
<path d="M513.899 117.85L505.767 143.427C505.234 144.966 504.748 146.417 503.601 147.733C502.01 149.503 500.461 149.592 498.695 149.639H493.789V144.105H496.176C497.281 144.059 499.004 144.059 499.004 142.382C499.004 141.792 498.828 141.203 498.695 140.706L491.8 117.85H499.047L502.85 134.809L506.648 117.85H513.899Z" fill="#9656A1"/>
<path d="M150.48 45.2663H179.451V141.488H150.48V45.2663ZM55.9322 0.675293H84.9055V141.487H55.9322V0.675293ZM-38.6098 0.675293H-9.6385V141.487H-38.6098V0.675293ZM8.66016 0.675293H37.6335V96.8975H8.66016V0.675293ZM150.287 0.675293H226.721V28.8379H150.287V0.675293ZM103.013 0.675293H132.177V28.8379H103.013V0.675293Z" fill="#9656A1"/>
<path d="M103.261 45.125H132.233V141.345H103.261V45.125Z" fill="#F2F1F1"/>
</g>
<defs>
<clipPath id="clip0_2_5">
<rect width="632.948" height="150" fill="white"/>
</clipPath>
</defs>
</svg>
