<svg width="572" height="150" viewBox="0 0 572 150" fill="none" xmlns="http://www.w3.org/2000/svg">
<g clip-path="url(#clip0_2_179)">
<path d="M0 63.1127V3.00684H11.7861V63.1127H0Z" fill="#9656A1"/>
<path d="M29.0802 25.2449H29.2466C32.0885 21.3812 37.519 19.1491 42.4536 19.1491C47.713 19.1491 52.2247 21.2957 54.7371 25.2449C58.2524 21.8137 63.6812 19.2363 68.6175 19.1491C78.0511 19.062 82.992 24.9915 83.1599 34.8607V63.0253H72.0376V36.9249C72.0376 31.9459 70.3664 26.7942 64.8567 26.7942C59.507 26.7942 56.166 30.0528 56.166 37.5205V63.1125H45.0453V36.9249C45.0453 30.9162 42.4552 26.7942 37.6901 26.7942C32.4212 26.7942 29.1674 30.4821 29.1674 37.7819V63.1125H18.0466V20.1788H29.0802V25.2449Z" fill="#9656A1"/>
<path d="M111.115 26.0213C117.462 26.0213 120.639 33.4066 120.639 40.7888C120.639 48.3452 118.136 57.2734 110.702 57.2734C104.681 57.2734 100.418 51.1776 100.418 42.1622C100.416 32.2867 104.094 26.0213 111.115 26.0213ZM100.416 20.179H89.3049V84.581H100.416V57.7883C103.513 61.5728 107.851 64.1407 112.947 64.1407C124.902 64.1407 132.424 52.0394 132.424 40.7032C132.424 31.257 127.079 19.1509 113.957 19.1509C108.942 19.1509 103.512 21.7283 100.582 26.1037H100.416V20.179V20.179Z" fill="#9656A1"/>
<path d="M148.352 36.4909C148.269 30.7483 151.106 25.5032 157.461 25.5032C162.974 25.5032 165.233 29.9673 164.813 36.4909H148.352ZM175.272 42.6738C176.097 29.8834 170.665 19.1492 157.629 19.1492C145.677 19.1492 136.318 27.5658 136.318 40.7887C136.318 54.9589 145.758 64.139 158.382 64.139C163.144 64.139 169.078 62.7656 174.762 59.3343L171.584 53.3256C168.831 55.2963 164.478 56.7632 160.387 56.7632C153.45 56.7632 147.937 50.7482 148.191 42.6722H175.272V42.6738Z" fill="#9656A1"/>
<path d="M191.666 27.7353H191.833L194.085 24.388C195.422 22.5804 197.848 19.1492 201.273 19.1492C203.782 19.1492 206.453 20.5258 208.797 23.0113L204.62 30.9162C202.782 29.9689 201.61 29.4525 199.354 29.4525C195.511 29.4525 191.746 32.6303 191.746 41.9023V63.1125H180.628V20.1789H191.665V27.7353H191.666Z" fill="#9656A1"/>
<path d="M223.47 20.179V63.1126H212.358V20.179H223.47ZM211.273 7.30463C211.273 4.03494 213.947 0.692383 217.71 0.692383C221.553 0.692383 224.563 3.95415 224.563 7.30463C224.563 10.9925 221.966 14.5109 217.87 14.5109C213.947 14.5109 211.273 10.9925 211.273 7.30463Z" fill="#9656A1"/>
<path d="M253.659 38.2112C254.494 50.829 248.734 56.5003 244.303 56.5003C241.629 56.5003 239.281 53.926 239.281 50.1446C239.281 45.2528 242.044 41.9926 247.474 40.2691L253.659 38.2112ZM253.496 56.844C253.496 59.1616 253.743 61.6519 254.576 63.1125H266.364C265.024 60.1058 264.607 56.071 264.607 52.6365V35.1237C264.607 21.7266 255.167 19.1492 247.476 19.1492C241.711 19.1492 236.617 20.6098 231.427 24.9915L235.02 30.3998C237.95 27.8224 241.295 26.0212 246.063 26.0212C249.656 26.0212 253.077 28.5115 253.662 32.4592L243.797 35.4627C234.101 38.2936 228.336 42.932 228.336 51.0936C228.336 58.9858 233.767 64.1374 240.285 64.1374C244.132 64.1374 247.9 61.4792 250.991 58.9858L253.496 56.844Z" fill="#9656A1"/>
<path d="M271.545 63.1125V0H282.655V63.1125H271.545Z" fill="#9656A1"/>
<path d="M356.011 13.9105C353.161 12.3627 348.402 10.5631 343.883 10.5631C331.852 10.5631 323.165 19.2364 323.165 32.8902C323.165 47.1443 332.778 55.5578 344.22 55.5578C348.738 55.5578 352.914 54.2683 356.011 52.551L359.269 60.0235C355.676 62.17 349.408 64.1423 343.723 64.1423C323.407 64.1423 310.622 50.4045 310.622 32.7222C310.622 16.32 323.331 1.98022 343.883 1.98022C349.989 1.98022 355.677 4.21388 359.681 6.61862L356.011 13.9105Z" fill="#9656A1"/>
<path d="M381.322 57.7882C373.379 57.7882 371.211 48.6888 371.211 41.1324C371.211 34.0069 373.714 25.5048 381.322 25.5048C389.094 25.5048 391.515 34.0069 391.515 41.1324C391.515 48.6872 389.43 57.7882 381.322 57.7882ZM381.322 64.139C394.45 64.139 403.296 54.4424 403.296 41.1324C403.296 27.222 392.606 19.1492 381.322 19.1492C370.119 19.1492 359.426 27.222 359.426 41.1324C359.426 54.4424 368.285 64.139 381.322 64.139Z" fill="#9656A1"/>
<path d="M408.09 63.1125V0H419.212V63.1125H408.09Z" fill="#9656A1"/>
<path d="M426.217 63.1125V0H437.328V63.1125H426.217Z" fill="#9656A1"/>
<path d="M453.99 36.4909C453.897 30.7483 456.741 25.5032 463.09 25.5032C468.612 25.5032 470.865 29.9673 470.45 36.4909H453.99ZM480.896 42.6738C481.734 29.8834 476.302 19.1492 463.262 19.1492C451.313 19.1492 441.941 27.5658 441.941 40.7887C441.941 54.9589 451.388 64.139 464.015 64.139C468.774 64.139 474.708 62.7656 480.398 59.3343L477.22 53.3256C474.467 55.2963 470.114 56.7632 466.02 56.7632C459.087 56.7632 453.564 50.7482 453.818 42.6722H480.896V42.6738Z" fill="#9656A1"/>
<path d="M544.762 36.4909C544.681 30.7483 547.519 25.5032 553.874 25.5032C559.386 25.5032 561.649 29.9673 561.229 36.4909H544.762ZM571.675 42.6738C572.507 29.8834 567.081 19.1492 554.042 19.1492C542.087 19.1492 532.727 27.5658 532.727 40.7887C532.727 54.9589 542.167 64.139 554.795 64.139C559.56 64.139 565.494 62.7656 571.175 59.3343L568 53.3256C565.241 55.2963 560.897 56.7632 556.8 56.7632C549.86 56.7632 544.354 50.7482 544.597 42.6722H571.675V42.6738Z" fill="#9656A1"/>
<path d="M506.879 26.0212C513.569 26.0212 516.991 32.9772 516.991 40.4449C516.991 49.031 513.813 57.2733 506.372 57.2733C499.939 57.2733 496.767 49.2005 496.767 40.871C496.767 32.5463 499.692 26.0212 506.879 26.0212ZM528.108 20.1789H516.991V25.4177H516.826C514.486 21.5539 509.467 19.1492 504.37 19.1492C493.002 19.1492 484.98 29.9689 484.98 41.1324C484.98 54.8702 492.254 64.139 503.37 64.139C509.726 64.139 514.066 60.5351 516.826 56.9264H516.991V62.5945C516.991 72.554 511.31 77.1924 503.95 77.1924C498.269 77.1924 493.504 76.0756 489.414 73.5014L487.235 80.5397C492.17 83.114 498.526 84.5809 504.788 84.5809C517.244 84.5809 528.108 78.3093 528.108 59.2503V20.1789Z" fill="#9656A1"/>
<path d="M0 88.8772H11.8716V140.901H36.8552V148.974H0V88.8772Z" fill="#9656A1"/>
<path d="M102.075 111.109C106.04 106.987 111.572 105.01 117.116 105.01C127.407 105.01 132.335 110.509 132.335 121.325V148.974H121.165V122.615C121.165 116.608 118.437 112.659 112.367 112.659C106.643 112.659 102.162 116.345 102.162 123.385V148.974H90.9904V106.046H102.076V111.109H102.075Z" fill="#9656A1"/>
<path d="M161.262 111.888C168.302 111.888 171.906 118.843 171.906 126.307C171.906 134.898 168.569 143.136 160.733 143.136C153.964 143.136 150.621 135.065 150.621 126.737C150.621 118.409 153.702 111.888 161.262 111.888ZM171.906 148.973H183.079V85.8704H171.906V111.028H171.73C169.092 107.244 163.994 105.01 158.277 105.01C146.485 105.01 138.219 115.831 138.219 126.993C138.219 140.728 145.869 150 157.395 150C164.256 150 168.829 146.396 171.73 142.787H171.906V148.973Z" fill="#9656A1"/>
<path d="M212.107 143.646C203.757 143.646 201.46 134.548 201.46 126.994C201.46 119.87 204.096 111.369 212.107 111.369C220.292 111.369 222.836 119.87 222.836 126.994C222.836 134.548 220.644 143.646 212.107 143.646ZM212.107 150C225.916 150 235.237 140.297 235.237 126.994C235.237 113.089 223.983 105.01 212.107 105.01C200.319 105.01 189.059 113.089 189.059 126.994C189.059 140.297 198.385 150 212.107 150Z" fill="#9656A1"/>
<path d="M252.393 111.109C256.354 106.987 261.893 105.01 267.431 105.01C277.724 105.01 282.652 110.509 282.652 121.325V148.974H271.482V122.615C271.482 116.608 268.754 112.659 262.681 112.659C256.968 112.659 252.479 116.345 252.479 123.385V148.974H241.307V106.046H252.392V111.109H252.393Z" fill="#9656A1"/>
<path d="M61.5981 143.646C53.2338 143.646 50.9526 134.548 50.9526 126.994C50.9526 119.87 53.5886 111.369 61.5981 111.369C69.7786 111.369 72.3291 119.87 72.3291 126.994C72.3291 134.548 70.124 143.646 61.5981 143.646ZM61.5981 150C75.4055 150 84.7298 140.297 84.7298 126.994C84.7298 113.089 73.4697 105.01 61.5981 105.01C49.8088 105.01 38.5503 113.089 38.5503 126.994C38.5503 140.297 47.8714 150 61.5981 150Z" fill="#9656A1"/>
</g>
<defs>
<clipPath id="clip0_2_179">
<rect width="571.756" height="150" fill="white"/>
</clipPath>
</defs>
</svg>
