<svg width="345" height="150" viewBox="0 0 345 150" fill="none" xmlns="http://www.w3.org/2000/svg">
<path d="M140.158 87.1759H143.146L149.912 99.5243H149.958V87.1759H152.154V102.514H149.343L142.398 89.9053H142.355V102.514H140.158V87.1759H140.158Z" fill="#9656A1"/>
<path d="M162.504 98.1665C162.504 99.8355 161.426 101.109 159.382 101.109C158.44 101.109 157.294 100.472 157.294 99.2858C157.294 97.3083 160.063 97.1312 161.188 97.1312C161.625 97.1312 162.061 97.1751 162.504 97.1751V98.1665V98.1665ZM156.481 93.8561C157.315 93.1542 158.569 92.717 159.733 92.717C161.8 92.717 162.504 93.704 162.504 95.6397C161.691 95.5958 161.119 95.5958 160.305 95.5958C158.176 95.5958 155.098 96.472 155.098 99.2858C155.098 101.722 156.791 102.78 159.208 102.78C161.097 102.78 162.195 101.744 162.679 101.064H162.721V102.514H164.657C164.612 102.184 164.568 101.592 164.568 100.315V95.6822C164.568 92.6292 163.272 91.0444 160.063 91.0444C158.635 91.0444 157.405 91.4819 156.373 92.1016L156.481 93.8563L156.481 93.8561Z" fill="#9656A1"/>
<path d="M174.017 92.9774H171.048V99.1076C171.048 100.406 171.842 101.109 172.785 101.109C173.424 101.109 173.885 100.91 174.192 100.713V102.472C173.73 102.603 173.095 102.78 172.435 102.78C170.303 102.78 168.985 101.769 168.985 99.5244V92.9774H166.457V91.3091H168.985V88.7125L171.048 88.0572V91.3091H174.017V92.9774V92.9774Z" fill="#9656A1"/>
<path d="M176.874 102.514H178.94V91.3092H176.874V102.514ZM179.073 86.4754H176.741V88.8031H179.073V86.4754Z" fill="#9656A1"/>
<path d="M184.167 96.9119C184.167 94.7815 185.464 92.717 187.683 92.717C189.879 92.717 191.178 94.7815 191.178 96.9119C191.178 98.9121 190.102 101.109 187.683 101.109C185.246 101.109 184.167 98.9121 184.167 96.9119ZM181.971 96.9119C181.971 100.116 184.298 102.78 187.683 102.78C191.045 102.78 193.374 100.116 193.374 96.9119C193.374 93.5052 191.09 91.0444 187.683 91.0444C184.256 91.0444 181.971 93.5052 181.971 96.9119Z" fill="#9656A1"/>
<path d="M196.146 91.3092H198.143V93.0886H198.186C198.801 91.8136 200.297 91.0446 201.856 91.0446C204.756 91.0446 206.055 92.8474 206.055 95.858V102.514H203.986V96.716C203.986 94.1004 203.418 92.8255 201.614 92.7172C199.263 92.7172 198.208 94.6048 198.208 97.3288V102.514H196.146V91.3092H196.146Z" fill="#9656A1"/>
<path d="M216.226 98.1665C216.226 99.8355 215.15 101.109 213.107 101.109C212.161 101.109 211.018 100.472 211.018 99.2858C211.018 97.3083 213.784 97.1312 214.908 97.1312C215.346 97.1312 215.787 97.1751 216.226 97.1751V98.1665V98.1665ZM210.203 93.8561C211.04 93.1542 212.293 92.717 213.454 92.717C215.52 92.717 216.226 93.704 216.226 95.6397C215.413 95.5958 214.841 95.5958 214.028 95.5958C211.899 95.5958 208.822 96.472 208.822 99.2858C208.822 101.722 210.513 102.78 212.929 102.78C214.819 102.78 215.917 101.744 216.403 101.064H216.445V102.514H218.379C218.335 102.184 218.29 101.592 218.29 100.315V95.6822C218.29 92.6292 216.995 91.0444 213.784 91.0444C212.361 91.0444 211.13 91.4819 210.096 92.1016L210.203 93.8563L210.203 93.8561Z" fill="#9656A1"/>
<path d="M222.05 86.034H224.114V102.514H222.05V86.034Z" fill="#9656A1"/>
<path d="M245.518 96.1647C245.518 100.471 243.344 102.78 239.566 102.78C235.786 102.78 233.611 100.471 233.611 96.1647V87.1757H235.809V95.8797C235.809 98.8245 236.729 100.843 239.566 100.843C242.398 100.843 243.321 98.8245 243.321 95.8797V87.1757H245.518V96.1647V96.1647Z" fill="#9656A1"/>
<path d="M249.255 91.3092H251.254V93.0886H251.298C251.915 91.8136 253.411 91.0446 254.967 91.0446C257.869 91.0446 259.167 92.8474 259.167 95.858V102.514H257.1V96.716C257.1 94.1004 256.528 92.8255 254.725 92.7172C252.374 92.7172 251.317 94.6048 251.317 97.3288V102.514H249.255V91.3092Z" fill="#9656A1"/>
<path d="M262.943 91.3092H265.009V102.514H262.943V91.3092ZM265.142 88.8031H262.812V86.4754H265.142V88.8031Z" fill="#9656A1"/>
<path d="M273.754 102.514H271.294L267.273 91.3092H269.535L272.569 100.451H272.612L275.708 91.3092H277.776L273.754 102.514H273.754Z" fill="#9656A1"/>
<path d="M281.225 95.8346C281.379 94.3841 282.212 92.717 284.236 92.717C286.012 92.717 287.024 94.1236 287.024 95.8346H281.225ZM288.365 99.9888C287.86 100.406 286.28 101.109 284.917 101.109C282.964 101.109 281.225 99.59 281.225 97.3726H289.225C289.225 93.7712 288.014 91.0444 284.28 91.0444C281.116 91.0444 279.026 93.3955 279.026 96.7158C279.026 100.359 280.851 102.78 284.828 102.78C286.675 102.78 287.575 102.336 288.365 102.054V99.9888V99.9888Z" fill="#9656A1"/>
<path d="M291.992 91.3092H293.925V93.0433H293.972C294.518 91.8781 295.706 91.0446 296.892 91.0446C297.506 91.0446 297.813 91.1103 298.255 91.2007V93.0433C297.88 92.8898 297.462 92.8472 297.111 92.8472C295.265 92.8472 294.057 94.6047 294.057 97.4192V102.514H291.992V91.309L291.992 91.3092Z" fill="#9656A1"/>
<path d="M299.707 100.315C300.517 100.843 301.682 101.109 302.273 101.109C303.219 101.109 304.384 100.713 304.384 99.5051C304.384 97.4617 299.526 97.6358 299.526 94.4936C299.526 92.1644 301.263 91.0444 303.483 91.0444C304.451 91.0444 305.24 91.2433 306.055 91.4817L305.877 93.2873C305.417 92.998 304.185 92.717 303.703 92.717C302.649 92.717 301.727 93.1542 301.727 94.0796C301.727 96.3621 306.582 95.7042 306.582 99.2858C306.582 101.678 304.668 102.78 302.669 102.78C301.615 102.78 300.539 102.669 299.593 102.163L299.707 100.315H299.707Z" fill="#9656A1"/>
<path d="M309.347 91.3092H311.416V102.514H309.347V91.3092ZM311.547 88.8031H309.219V86.4754H311.547V88.8031Z" fill="#9656A1"/>
<path d="M321.148 92.9774H318.185V99.1076C318.185 100.406 318.972 101.109 319.918 101.109C320.558 101.109 321.018 100.91 321.325 100.713V102.472C320.864 102.603 320.227 102.78 319.569 102.78C317.437 102.78 316.118 101.769 316.118 99.5244V92.9774H313.59V91.3091H316.118V88.7125L318.185 88.0572V91.3091H321.148V92.9774V92.9774Z" fill="#9656A1"/>
<path d="M322.908 105.546C323.17 105.636 323.521 105.724 323.872 105.724C325.717 105.724 326.333 103.172 326.333 102.954C326.333 102.713 326.071 102.141 325.938 101.768L322.136 91.3089H324.4L327.41 100.584H327.452L330.532 91.3089H332.621L328.489 102.756C327.72 104.908 326.904 107.392 324.183 107.392C323.521 107.392 323.146 107.304 322.776 107.239L322.908 105.545L322.908 105.546Z" fill="#9656A1"/>
<path d="M141.431 122.879C141.431 120.75 142.727 118.684 144.948 118.684C147.144 118.684 148.442 120.75 148.442 122.879C148.442 124.877 147.364 127.079 144.948 127.079C142.507 127.079 141.431 124.877 141.431 122.879ZM139.233 122.879C139.233 126.087 141.561 128.748 144.948 128.748C148.308 128.748 150.638 126.087 150.638 122.879C150.638 119.474 148.352 117.01 144.948 117.01C141.522 117.01 139.233 119.474 139.233 122.879Z" fill="#9656A1"/>
<path d="M154.744 118.948H152.108V117.278H154.744V116.241C154.744 113.52 155.452 111.741 158.505 111.741C159.032 111.741 159.471 111.805 159.885 111.871L159.802 113.541C159.559 113.453 159.161 113.412 158.81 113.412C157.032 113.412 156.812 114.553 156.812 116.069V117.278H159.78V118.948H156.812V128.48H154.744V118.948L154.744 118.948Z" fill="#9656A1"/>
<path d="M174.613 115.453C173.493 115.016 172.877 114.814 171.737 114.814C170.504 114.814 169.054 115.257 169.054 116.86C169.054 119.807 175.647 119.12 175.647 124.178C175.647 127.449 173.12 128.748 170.044 128.748C168.969 128.748 167.912 128.437 166.904 128.108L167.121 126.068C167.867 126.374 169.187 126.813 170.308 126.813C171.56 126.813 173.317 126.111 173.317 124.306C173.317 120.88 166.725 121.828 166.725 117.06C166.725 114.33 168.878 112.883 171.65 112.883C172.661 112.883 173.867 113.058 174.921 113.428L174.613 115.453V115.453Z" fill="#9656A1"/>
<path d="M178.7 117.278H180.767V128.479H178.7V117.278ZM180.899 114.77H178.571V112.445H180.899V114.77Z" fill="#9656A1"/>
<path d="M184.547 117.278H186.547V119.056H186.589C187.206 117.781 188.699 117.01 190.258 117.01C193.16 117.01 194.457 118.814 194.457 121.828V128.479H192.389V122.68C192.389 120.066 191.819 118.792 190.016 118.684C187.667 118.684 186.611 120.575 186.611 123.296V128.479H184.546V117.278H184.547Z" fill="#9656A1"/>
<path d="M202.543 126.813C200.607 126.813 199.422 124.966 199.422 122.856C199.422 120.946 200.457 118.684 202.543 118.684C204.74 118.684 205.814 120.682 205.814 123.012C205.814 125.1 204.476 126.813 202.543 126.813ZM207.884 117.278H205.969V118.948H205.926C205.311 117.74 204.214 117.01 202.234 117.01C198.851 117.01 197.226 120.09 197.226 122.97C197.226 125.867 198.806 128.48 202.012 128.48C203.443 128.48 204.895 127.911 205.773 126.747H205.814V127.845C205.814 130.218 204.518 131.689 202.343 131.689C200.826 131.689 199.883 131.405 198.301 130.681L198.08 132.592C199.883 133.206 200.917 133.36 202.101 133.36C206.124 133.36 207.884 131.405 207.884 127.997V117.278H207.884Z" fill="#9656A1"/>
<path d="M218.053 124.131C218.053 125.801 216.978 127.079 214.933 127.079C213.987 127.079 212.846 126.438 212.846 125.251C212.846 123.278 215.616 123.1 216.736 123.1C217.176 123.1 217.615 123.145 218.053 123.145V124.131V124.131ZM212.036 119.823C212.868 119.12 214.12 118.684 215.287 118.684C217.35 118.684 218.053 119.671 218.053 121.606C217.243 121.56 216.67 121.56 215.857 121.56C213.725 121.56 210.65 122.442 210.65 125.251C210.65 127.691 212.339 128.748 214.758 128.748C216.645 128.748 217.746 127.713 218.231 127.03H218.275V128.479H220.206C220.164 128.153 220.122 127.564 220.122 126.284V121.649C220.122 118.594 218.821 117.01 215.616 117.01C214.19 117.01 212.958 117.452 211.924 118.071L212.036 119.823H212.036Z" fill="#9656A1"/>
<path d="M232.074 122.834C232.118 124.594 231.195 127.078 228.974 127.078C226.646 127.078 225.678 124.77 225.678 122.901C225.678 120.816 226.756 118.684 228.996 118.684C231.236 118.684 232.117 120.816 232.074 122.834V122.834ZM223.614 133.097H225.678V126.944H225.723C226.361 127.978 227.479 128.748 229.459 128.748C232.842 128.748 234.271 125.758 234.271 122.68C234.271 119.671 232.689 117.01 229.437 117.01C227.459 117.01 226.184 118.026 225.634 118.86H225.593V117.278H223.613V133.097H223.614Z" fill="#9656A1"/>
<path d="M238.488 122.879C238.488 120.75 239.785 118.684 242.005 118.684C244.201 118.684 245.498 120.75 245.498 122.879C245.498 124.877 244.422 127.079 242.005 127.079C239.566 127.079 238.488 124.877 238.488 122.879ZM236.292 122.879C236.292 126.087 238.621 128.748 242.005 128.748C245.365 128.748 247.694 126.087 247.694 122.879C247.694 119.474 245.41 117.01 242.005 117.01C238.575 117.01 236.292 119.474 236.292 122.879Z" fill="#9656A1"/>
<path d="M250.465 117.278H252.398V119.013H252.44C252.991 117.845 254.177 117.01 255.364 117.01C255.977 117.01 256.286 117.078 256.726 117.168V119.013C256.351 118.86 255.936 118.814 255.585 118.814C253.74 118.814 252.529 120.575 252.529 123.385V128.479H250.465V117.278H250.465Z" fill="#9656A1"/>
<path d="M260.46 121.802C260.615 120.354 261.45 118.684 263.472 118.684C265.251 118.684 266.262 120.089 266.262 121.802H260.46ZM267.602 125.957C267.098 126.374 265.512 127.079 264.153 127.079C262.196 127.079 260.46 125.558 260.46 123.341H268.458C268.458 119.738 267.253 117.01 263.516 117.01C260.353 117.01 258.264 119.364 258.264 122.681C258.264 126.327 260.088 128.748 264.065 128.748C265.912 128.748 266.813 128.307 267.602 128.022V125.957V125.957Z" fill="#9656A1"/>
<path d="M282.186 56.6027C286.394 60.4817 294.685 64.0221 304.813 64.1798C313.69 64.3314 320.852 61.6581 321.292 54.2989C322.234 38.3675 281.379 44.743 282.964 17.849C283.751 4.39141 297.111 -0.0650085 311.527 0.180439C319.316 0.312011 327.107 2.15952 331.375 4.32696L331.394 13.8828C326.186 10.3109 318.919 8.03733 312.906 7.92427C303.76 7.75615 296.501 9.43969 296.386 16.1243C296.139 30.0673 337.352 26.723 335.777 53.3942C334.894 68.413 320.298 73.0193 305.02 72.7396C296.233 72.6188 287.626 70.8339 282.208 68.0605L282.189 56.6027H282.186Z" fill="#9656A1"/>
<path d="M243.539 72.8147C224.562 72.8147 213.635 64.2907 213.635 46.758V2.25027H227.864L227.867 46.758C227.867 57.6575 233.1 64.2702 243.537 64.2702C253.972 64.2702 259.209 57.6575 259.209 46.758L259.213 2.25027H273.432V46.758C273.432 64.2907 262.507 72.8147 243.535 72.8147H243.539Z" fill="#9656A1"/>
<path d="M190.525 2.25021V52.387L157.919 5.7982C156.376 3.64791 153.827 2.25021 150.988 2.25021H140.193V70.613H149.677V20.4473L182.228 66.8962C183.775 69.1144 186.34 70.613 189.275 70.613H200.006V2.25021H190.525Z" fill="#9656A1"/>
<path d="M123.862 73.2906V2.55055H122.456H8.61848V73.3442C8.61463 73.4038 8.61079 73.5886 8.61079 73.8889C8.61079 77.2312 9.3353 94.9162 23.5566 117.319C39.0918 141.832 64.7253 149.41 65.8076 149.718L66.1956 149.829L66.5822 149.718C67.6679 149.409 93.3844 141.834 108.93 117.319C124.427 92.8954 123.892 74.0775 123.864 73.2906H123.862Z" fill="#9656A1"/>
<path d="M106.43 115.204C92.4681 137.227 69.292 145.259 66.0724 146.286C62.8624 145.256 39.7631 137.227 25.8057 115.204C11.8113 93.1577 11.3021 75.4797 11.3021 73.0655C11.3021 72.8928 11.3056 72.7982 11.3056 72.7858C11.3056 72.7858 11.3056 61.2891 11.3056 47.7423H120.928C120.928 61.2651 120.928 72.7337 120.928 72.7337C120.928 72.7491 120.932 72.8477 120.932 73.027C120.932 75.5015 120.415 93.1657 106.429 115.204L106.43 115.204Z" fill="white"/>
<path d="M89.0634 58.0667L89.0865 58.0627C89.0827 58.0655 89.0711 58.0656 89.0634 58.0667Z" fill="#592B1A"/>
<path d="M62.5963 10.6915C62.399 10.6569 57.709 9.82973 52.1075 9.82973C47.6685 9.82973 43.6626 11.1626 41.901 11.843C40.1407 11.1626 36.1342 9.82973 31.6958 9.82973C26.0956 9.82973 21.4044 10.6566 21.2069 10.6915L20.5763 10.8042V15.6523V36.5233V40.6374L21.5051 40.4343C21.5443 40.4266 25.4245 39.5929 31.1392 39.5929C35.4343 39.5929 39.8863 40.7886 41.6405 41.4209L41.8994 41.5144L42.1653 41.4209C43.9173 40.7886 48.3673 39.5929 52.6651 39.5929C58.3791 39.5929 62.2589 40.4257 62.2973 40.4343L63.2268 40.6374V36.5233V15.6523V10.8044L62.5961 10.6915H62.5963Z" fill="#F4EDF4"/>
<path d="M41.1676 13.2272C39.3922 12.5609 35.7304 11.4013 31.7308 11.4013C27.3973 11.4013 23.5745 11.9192 22.1419 12.1388C22.1419 13.3267 22.1419 33.0337 22.1419 34.6908C23.6403 34.4349 26.8661 33.9877 31.1736 33.9877C35.0341 33.9877 38.8959 34.87 41.1676 35.5715V13.2272V13.2272Z" fill="white"/>
<path d="M52.1425 11.4014C48.0907 11.4014 44.3838 12.5916 42.6358 13.2534V35.5942C44.8951 34.8889 48.7953 33.9879 52.7004 33.9879C57.0071 33.9879 60.2323 34.4353 61.7306 34.6909C61.7306 33.0338 61.7306 13.3269 61.7306 12.139C60.2988 11.9189 56.4766 11.4014 52.1425 11.4014Z" fill="white"/>
<path d="M26.3931 15.1619C25.8379 15.3116 25.5322 15.8185 25.7008 16.2984C25.872 16.7782 26.459 17.0448 27.0128 16.8974C27.0397 16.8897 29.9054 16.382 32.3457 16.382C34.5611 16.382 37.0452 17.3883 37.0713 17.3999C37.6114 17.5753 38.216 17.3368 38.4175 16.8673C38.6202 16.3984 38.3463 15.8748 37.8061 15.6966C37.6853 15.6554 34.9477 14.5697 32.3457 14.5697C29.5805 14.5697 26.5193 15.129 26.3931 15.1619V15.1619Z" fill="#9656A1"/>
<path d="M26.3931 19.6418C25.8379 19.7899 25.5322 20.2999 25.7008 20.779C25.872 21.2575 26.459 21.5248 27.0128 21.3768C27.0397 21.373 29.9054 20.864 32.3457 20.864C34.5611 20.864 37.0452 21.8708 37.0713 21.8798C37.6114 22.0544 38.216 21.816 38.4175 21.3465C38.6202 20.8784 38.3463 20.3554 37.8061 20.1786C37.6853 20.1393 34.9477 19.0482 32.3457 19.0482C29.5805 19.0482 26.5193 19.6089 26.3931 19.6418Z" fill="#9656A1"/>
<path d="M26.3931 24.1231C25.8379 24.2712 25.5322 24.7817 25.7008 25.2582C25.872 25.7386 26.459 26.0067 27.0128 25.8579C27.0397 25.8502 29.9054 25.3439 32.3457 25.3439C34.5611 25.3439 37.0452 26.35 37.0713 26.3576C37.6114 26.5349 38.216 26.2965 38.4175 25.8278C38.6202 25.3569 38.3463 24.8359 37.8061 24.6597C37.6853 24.62 34.9477 23.5274 32.3457 23.5274C29.5805 23.5274 26.5193 24.0874 26.3931 24.1231V24.1231Z" fill="#9656A1"/>
<path d="M26.3931 28.6026C25.8379 28.7542 25.5322 29.2618 25.7008 29.7388C25.872 30.2194 26.459 30.4861 27.0128 30.3381C27.0397 30.3304 29.9054 29.8213 32.3457 29.8213C34.5611 29.8213 37.0452 30.8324 37.0713 30.8392C37.6114 31.0154 38.216 30.7788 38.4175 30.3087C38.6202 29.8398 38.3463 29.3146 37.8061 29.1384C37.6853 29.1 34.9477 28.0069 32.3457 28.0069C29.5805 28.0069 26.5193 28.5711 26.3931 28.6026V28.6026Z" fill="#9656A1"/>
<path d="M57.5679 15.1619C58.119 15.3116 58.4275 15.8185 58.2575 16.2984C58.0863 16.7782 57.5007 17.0448 56.9469 16.8974C56.9199 16.8897 54.0542 16.382 51.6126 16.382C49.3985 16.382 46.9145 17.3883 46.8871 17.3999C46.3483 17.5753 45.7437 17.3368 45.5422 16.8673C45.3379 16.3984 45.6122 15.8748 46.1522 15.6966C46.273 15.6554 49.0119 14.5697 51.6126 14.5697C54.3778 14.5697 57.4391 15.129 57.5679 15.1619V15.1619Z" fill="#9656A1"/>
<path d="M57.5679 19.6418C58.119 19.7899 58.4275 20.2999 58.2575 20.779C58.0863 21.2575 57.5007 21.5248 56.9469 21.3768C56.9199 21.373 54.0542 20.864 51.6126 20.864C49.3985 20.864 46.9145 21.8708 46.8871 21.8798C46.3483 22.0544 45.7437 21.816 45.5422 21.3465C45.3379 20.8784 45.6122 20.3554 46.1522 20.1786C46.273 20.1393 49.0119 19.0482 51.6126 19.0482C54.3778 19.0482 57.4391 19.6089 57.5679 19.6418V19.6418Z" fill="#9656A1"/>
<path d="M57.5679 24.1231C58.119 24.2712 58.4275 24.7817 58.2575 25.2582C58.0863 25.7386 57.5007 26.0067 56.9469 25.8579C56.9199 25.8502 54.0542 25.3439 51.6126 25.3439C49.3985 25.3439 46.9145 26.35 46.8871 26.3576C46.3483 26.5349 45.7437 26.2965 45.5422 25.8278C45.3379 25.3569 45.6122 24.8359 46.1522 24.6597C46.273 24.62 49.0119 23.5274 51.6126 23.5274C54.3778 23.5274 57.4391 24.0874 57.5679 24.1231V24.1231Z" fill="#9656A1"/>
<path d="M57.5679 28.6026C58.119 28.7542 58.4275 29.2618 58.2575 29.7388C58.0863 30.2194 57.5007 30.4861 56.9469 30.3381C56.9199 30.3304 54.0542 29.8213 51.6126 29.8213C49.3985 29.8213 46.9145 30.8324 46.8871 30.8392C46.3483 31.0154 45.7437 30.7788 45.5422 30.3087C45.3379 29.8398 45.6122 29.3146 46.1522 29.1384C46.273 29.1 49.0119 28.0069 51.6126 28.0069C54.3778 28.0069 57.4391 28.5711 57.5679 28.6026V28.6026Z" fill="#9656A1"/>
<path d="M115.976 68.1043C115.411 66.0424 114.371 65.1301 112.985 64.395C109.162 62.3667 104.172 63.7879 99.795 65.2788C96.4925 66.4044 95.4958 66.7444 91.7532 67.3175C88.9264 67.752 79.4697 68.9763 76.4812 66.5045C76.0521 66.151 75.6216 65.3744 75.5777 64.8754C75.4942 63.8434 75.9602 62.6145 76.318 62.2237C77.0734 61.3974 78.8336 60.9961 81.7029 60.9961L89.0237 61.1112C89.4829 61.6992 90.6537 62.648 93.6272 63.2841C98.3569 64.2931 103.558 62.652 103.558 62.652C103.558 62.652 102.699 62.4805 101.983 61.9426C101.351 61.4704 101.404 60.7594 101.404 60.7594C101.404 60.7594 102.448 61.2633 103.965 61.2166C105.857 61.1631 106.732 60.264 108.498 59.8157C110.263 59.3675 112.229 59.7359 112.229 59.7359C112.229 59.7359 110.446 57.8304 108.677 57.4932C106.916 57.1566 104.714 57.6083 104.714 57.6083C104.714 57.6083 105.266 57.3616 105.923 56.7679C106.449 56.2956 106.555 55.4813 106.555 55.4813C106.555 55.4813 104.442 56.3018 102.298 56.1893C100.153 56.077 100.31 55.3044 96.1511 55.1914C92.9966 55.1067 90.3905 56.9806 89.3116 57.8933C85.9391 57.674 83.2822 57.554 81.7289 57.554C77.4408 57.554 74.9649 58.2562 73.4514 59.9017C72.1874 61.275 71.6377 63.0543 71.8186 65.1898C71.9583 66.8511 72.7001 68.2465 74.0217 69.3378C78.0248 72.6485 88.7564 71.6321 92.5538 70.961C96.8078 70.2097 98.0786 69.8821 100.542 69.0649L100.683 69.0177C102.589 68.381 108.389 66.4417 110.821 67.7338C111.315 67.9942 111.653 68.4838 111.859 69.2316C111.951 69.5667 111.998 69.8698 111.998 70.1474C111.998 70.6505 111.844 71.0721 111.531 71.4553C109.317 74.1628 100.988 74.6233 97.3698 74.818C96.9708 74.7234 94.5526 74.1805 91.3405 74.162C89.1923 74.1504 87.3922 74.2859 85.4867 74.4301C82.01 74.6933 78.4154 74.9656 72.4451 74.2829C69.6759 73.9663 67.0807 73.4603 65.1264 72.8818C65.0352 72.1395 64.6871 71.432 63.9454 70.6013C65.378 71.0639 67.2397 69.4901 67.7634 68.7059C67.7557 68.6278 65.219 67.9561 65.0681 66.3089C65.0643 66.2574 66.8655 66.4582 67.614 63.9883C65.8153 63.0146 66.3815 62.6558 65.5178 61.4416C64.7556 60.3749 63.6534 59.8367 62.2976 59.8707C62.8459 59.8003 62.8953 59.8708 63.4944 59.5692C64.2744 59.1791 64.8173 58.1037 65.5919 58.1479C64.0277 55.7001 59.8272 55.3769 58.0847 55.8934C58.5316 55.3361 59.2185 54.7197 59.2267 53.9572C56.9044 54.5974 54.6287 53.3901 52.2871 53.8292C50.3473 54.1932 49.2395 54.9812 48.6309 56.8247H48.627H48.5489H48.5451C47.9337 54.9812 46.8287 54.1932 44.8875 53.8292C42.5459 53.3902 40.2689 54.5975 37.9452 53.9572C37.9567 54.7197 38.643 55.3361 39.0872 55.8934C37.3488 55.3769 33.1469 55.6999 31.5827 58.1479C32.3573 58.1036 32.8988 59.1791 33.6788 59.5692C34.367 59.915 34.5055 59.8453 34.877 59.8707C33.5226 59.836 32.4203 60.3749 31.6568 61.4416C30.7903 62.6558 31.3578 63.0146 29.5606 63.9883C30.3105 66.4584 32.1105 66.2576 32.1078 66.3089C31.957 67.9561 29.4166 68.6277 29.4111 68.7059C29.9349 69.4901 31.7966 71.0639 33.2305 70.6013C32.0543 71.916 31.8583 72.9236 32.127 74.2479C30.2995 72.8632 28.4968 71.3333 27.5385 70.0645C27.3139 69.7383 26.5967 67.3781 26.1216 65.8163L25.7344 64.5462C25.7337 64.5455 25.544 63.8718 25.544 63.8718C24.9716 61.7682 24.4198 60.0078 23.4643 59.7744C22.9378 59.649 22.4717 59.621 22.0495 59.6471C21.719 59.132 21.2612 58.5883 20.7224 58.4214C19.6147 58.0829 19.0786 58.3256 19.0786 58.3256C19.0786 58.3256 19.9753 58.9693 20.2769 59.6321C20.3534 59.8021 20.4031 59.9634 20.4331 60.1092C20.2303 60.2239 20.0507 60.3471 19.8991 60.4713L19.8184 60.5361C19.7053 60.6273 19.5502 60.7552 19.3845 60.9052C19.3091 60.8822 19.2322 60.8631 19.1556 60.8531C18.0054 60.7015 17.5146 61.0363 17.5146 61.0363C17.5146 61.0363 18.1404 61.3411 18.6031 61.7677C18.2028 62.324 17.8725 63.0386 17.8725 63.919C17.8725 64.006 17.8801 64.0976 17.8917 64.1884C16.7922 64.2726 16.3864 64.67 16.3864 64.67C16.3864 64.67 17.453 64.9578 17.9712 65.4679C18.0282 65.5248 18.0774 65.5821 18.124 65.639C18.0739 65.6952 18.0354 65.7374 18.0354 65.7374C17.8135 66.0856 17.7162 66.4808 17.7162 66.8903C17.7162 67.8485 18.2535 68.8837 18.9918 69.5583C18.9918 69.5583 20.9638 71.1909 21.1475 71.3438C21.929 73.0841 22.7899 74.6149 23.3575 75.2585C23.5321 75.4797 24.7373 77.554 26.0129 79.7488C26.1829 80.0416 26.3568 80.3412 26.5339 80.6456C26.8082 81.9918 27.1178 83.669 27.2563 84.9851C27.5099 87.3554 27.2679 90.0021 27.2679 90.0021C27.2679 90.0021 28.8033 89.9258 29.4998 88.9252C29.5152 88.9021 30.066 90.5683 29.9851 92.445C29.9247 93.8331 29.5547 95.7592 29.5547 95.7592C29.5547 95.7592 31.0517 94.966 32.1786 93.9694C32.7448 93.469 33.3191 92.6418 33.666 92.0982C34.904 92.8885 38.4478 91.6279 40.2156 90.9164C40.561 91.6196 41.0347 92.3964 41.6872 93.2758C41.945 92.2147 43.0774 91.6842 43.6025 90.8357C43.7621 90.8342 43.9225 90.8335 44.0837 90.8328C44.1483 91.9947 43.8125 93.0852 44.9117 95.2581C45.223 95.8722 46.746 98.1431 47.8544 99.3097C47.4349 101.275 46.639 104.861 45.8144 107.798C44.8719 111.157 44.1083 112.824 43.6717 113.601C42.4098 113.663 40.097 113.741 39.3636 113.709C37.6054 113.624 36.3037 113.993 35.4954 114.802C35.4358 114.862 35.3877 114.923 35.3369 114.985C34.7228 115.07 34.0182 115.263 33.6371 115.691C32.8721 116.557 32.8666 117.15 32.8666 117.15C32.8666 117.15 33.8248 116.597 34.5514 116.597C34.6049 116.597 34.6542 116.601 34.705 116.605C34.7036 116.666 34.7043 116.718 34.7064 116.755C34.7141 116.924 34.8149 117.2 34.9745 117.533C34.856 117.619 34.7499 117.716 34.6641 117.826C33.958 118.744 33.9964 119.334 33.9964 119.334C33.9964 119.334 34.8944 118.732 35.6168 118.673C35.8431 119.032 36.0967 119.404 36.3626 119.763C36.3318 119.802 36.2995 119.838 36.2734 119.877C35.6373 120.847 35.7209 121.432 35.7209 121.432C35.7209 121.432 36.4338 120.874 37.1055 120.69C37.336 120.952 37.5634 121.188 37.7773 121.376C38.8343 122.308 41.4623 121.704 44.7895 120.818L46.8541 120.308C48.3107 120.037 49.2163 119.455 49.8825 118.363C50.041 118.104 50.1853 117.679 50.4089 117.006L50.6051 116.425C51.063 115.133 51.4215 114.309 52.3359 112.844C52.3628 112.799 53.2564 111.364 54.4711 109.388C55.5473 108.492 56.8442 107.451 57.7873 106.815C59.2268 105.843 62.092 104.38 62.092 104.38C62.092 104.38 61.3257 103.138 60.1892 102.97C60.1661 102.966 61.6424 101.466 62.8762 100.933C64.2691 100.325 66.0636 99.9963 66.0636 99.9963C66.0636 99.9963 65.411 98.6533 64.3993 98.0042C64.8202 97.8672 65.2054 97.6212 65.6853 97.3052C68.1049 95.7273 69.8899 95.7821 71.572 96.2551C71.6394 95.1638 71.3635 94.4955 70.4163 93.8642C71.2141 93.5249 72.0353 93.2369 72.9072 93.0271C73.4597 93.9752 74.0835 95.0218 74.3673 95.4248C75.6149 97.1939 77.4902 99.6268 79.0093 101.15C79.0489 101.188 79.067 101.259 79.067 101.355C79.067 101.992 78.2896 103.754 77.8468 104.761L77.4655 105.629C77.4655 105.63 75.9369 109.223 75.4914 110.271C74.603 110.323 72.0243 110.463 71.1195 110.417C69.4058 110.336 68.1365 110.694 67.3481 111.481C67.2473 111.581 67.1611 111.684 67.085 111.787C66.4475 111.901 65.6819 112.134 65.3028 112.616C64.5871 113.529 64.6159 114.116 64.6159 114.116C64.6159 114.116 65.5413 113.512 66.2651 113.469C66.379 113.461 66.4833 113.465 66.5833 113.473C66.6141 113.666 66.7183 113.939 66.8822 114.264C66.7122 114.385 66.5641 114.524 66.4586 114.686C65.8239 115.655 65.9076 116.237 65.9076 116.237C65.9076 116.237 66.7739 115.556 67.4951 115.45C67.522 115.446 67.5467 115.446 67.5732 115.442C67.7475 115.71 67.9336 115.98 68.1271 116.244C68.0578 116.313 67.9928 116.386 67.9405 116.465C67.3044 117.435 67.3866 118.023 67.3866 118.023C67.3866 118.023 68.2167 117.367 68.9262 117.243C69.1482 117.498 69.3649 117.723 69.5636 117.898C70.5767 118.791 72.7387 118.26 75.6848 117.413L77.7809 116.864C79.2026 116.599 80.0868 116.031 80.7366 114.966C80.7381 114.965 81.2918 113.778 81.2918 113.778C81.5511 113.176 81.8444 112.493 82.0719 112.139C82.4132 111.602 82.7725 110.954 83.1358 110.256C83.6293 109.833 84.0886 109.448 84.4121 109.2C85.3512 108.479 87.7366 107.166 87.7366 107.166C87.7366 107.166 87.2622 106.12 86.2889 106.022C86.2773 106.02 87.2348 104.954 88.385 104.287C89.2021 103.812 90.8225 103.531 90.8225 103.531C90.8225 103.531 89.7038 102.585 88.8566 102.216C88.5153 102.068 88.0655 101.967 87.6447 101.894C87.5912 101.408 87.3361 100.865 86.8701 100.146C86.0339 98.8529 87.2581 96.072 88.1368 94.4975C88.5783 95.122 89.3721 96.1576 90.6937 97.6266C90.6937 97.6266 94.9408 102.273 95.8812 103.302C95.6988 104.043 95.1012 106.359 94.1607 108.917C93.4807 110.776 92.5114 112.716 92.0152 113.67C90.9925 113.727 88.6743 113.846 87.827 113.807C86.1134 113.725 84.8439 114.083 84.0543 114.872C83.9212 115.004 83.8173 115.142 83.7253 115.278C83.1495 115.415 82.5245 115.656 82.2009 116.083C81.5004 117.01 81.5429 117.598 81.5429 117.598C81.5429 117.598 82.2365 116.947 83.1783 116.922C83.2222 116.921 83.2607 116.923 83.3018 116.924C83.3472 117.124 83.458 117.393 83.6185 117.707C83.4511 117.827 83.3061 117.963 83.2017 118.121C82.5669 119.093 82.6506 119.677 82.6506 119.677C82.6506 119.677 83.5157 118.99 84.234 118.888C84.2609 118.884 84.2863 118.884 84.312 118.88C84.5356 119.218 84.7781 119.561 85.0263 119.888C85.0224 119.895 85.0147 119.899 85.0109 119.907C84.3747 120.875 84.4585 121.463 84.4585 121.463C84.4585 121.463 85.0973 120.955 85.7362 120.748C85.9212 120.953 86.102 121.138 86.2694 121.285C87.2852 122.182 89.4554 121.649 92.4098 120.797L94.4895 120.252C95.9084 119.988 96.7926 119.421 97.4451 118.355C97.7344 117.88 99.0245 114.871 99.3809 114.002C100.018 112.437 100.737 110.823 101.432 109.346C101.78 109.051 102.109 108.785 102.374 108.602C103.533 107.795 106.02 106.377 106.02 106.377C106.02 106.377 105.524 105.313 104.571 105.234C104.56 105.231 105.546 104.286 106.532 103.657C107.445 103.073 109.103 102.742 109.103 102.742C109.103 102.742 107.909 101.833 107.062 101.467C106.565 101.25 105.857 101.113 105.355 101.036C105.21 100.33 104.852 100.094 104.316 99.823C103.842 99.5818 103.189 99.2506 102.197 98.0819C100.92 96.5807 100.728 93.7119 100.728 90.8481C100.728 90.2189 100.736 89.5897 100.748 88.9755L100.752 86.2268C100.667 82.9983 100.194 80.7439 99.748 79.2578C103.958 78.8754 111.676 78.0226 114.838 74.1559C115.786 72.9947 116.268 71.6362 116.268 70.1549C116.268 69.4934 116.172 68.8072 115.978 68.1031L115.976 68.1043Z" fill="#9656A1"/>
<path d="M56.8715 64.932C57.5309 64.4755 59.1061 63.1703 58.2644 61.581C57.3719 59.9054 55.3223 60.5892 54.7137 60.8397C54.6286 60.7535 50.0895 58.779 50.0278 58.814C50.0701 58.7832 48.2552 60.9141 48.2566 60.9141C48.2552 60.9141 46.4484 58.7841 46.4881 58.814C46.4266 58.7793 41.8873 60.7533 41.8037 60.8397C41.195 60.5892 39.1455 59.9054 38.253 61.581C37.4085 63.1703 38.9837 64.4755 39.6431 64.932C39.6354 64.9589 39.6278 64.9712 39.6278 64.9712C39.6278 64.9711 38.1471 67.5945 38.1649 67.563C38.188 67.5211 42.4422 72.7155 42.4409 72.7155C42.4447 72.7039 42.4332 76.057 42.4332 76.0714C42.4332 76.0714 44.1248 77.2093 44.2537 77.2436C44.5238 78.5185 44.6061 79.1773 44.9035 79.8662C44.9982 80.0897 46.6199 80.5627 48.1951 80.5901C48.2144 80.5901 48.3225 80.5901 48.3225 80.5901C49.8964 80.5632 51.5181 80.0896 51.6127 79.8662C51.909 79.1773 51.9924 78.5185 52.2625 77.2436C52.3926 77.2089 54.0736 76.0714 54.0736 76.0714C54.0774 76.0752 54.0735 72.7237 54.0774 72.7155C54.0735 72.7155 58.33 67.5212 58.3533 67.563C58.3687 67.5938 56.8905 64.9712 56.8905 64.9712C56.8905 64.9711 56.8829 64.9597 56.8713 64.932H56.8715ZM42.1664 65.1921L45.9658 65.1482L46.1166 65.1468L45.9747 67.3587L42.1663 65.1924L42.1664 65.1921ZM51.0389 67.4111C51.0581 67.5858 51.6448 72.707 51.6448 72.707C51.6448 72.707 48.866 74.2145 48.7282 74.2899C48.7268 74.4365 48.7128 76.0541 48.709 76.1789C48.8367 76.2778 49.3382 76.6532 49.8578 76.8726C50.7948 77.2701 51.7353 77.0356 51.7449 77.0329L51.9819 76.9726L51.781 77.674L51.696 77.6892C51.6514 77.6969 50.5951 77.8909 49.7335 77.6312C48.9857 77.4043 48.5943 77.1163 48.4908 77.0327C48.4181 77.0327 48.1076 77.0327 48.0377 77.0327C47.935 77.1108 47.5229 77.4029 46.7668 77.6312C45.908 77.8909 44.8503 77.6977 44.8057 77.6892L44.7207 77.674L44.5199 76.9726L44.7569 77.0329C44.7646 77.0357 45.7056 77.27 46.6467 76.8726C47.1636 76.6533 47.6667 76.2762 47.7935 76.1789C47.7928 76.0527 47.7858 74.3995 47.7858 74.2699C47.6735 74.1899 44.8795 72.2012 44.8795 72.2012C44.8795 72.2012 49.8168 72.1973 50.0814 72.1935C50.0814 71.925 50.0814 65.264 50.0814 65.264L54.1935 65.2332L54.713 65.2292C54.713 65.2292 51.1857 67.323 51.0369 67.4113L51.0389 67.4111Z" fill="#F4EDF4"/>
<path d="M85.7663 103.231C86.3257 102.713 86.6067 102.429 86.6067 102.059C86.6067 101.743 86.3997 101.363 85.9815 100.718C85.6661 100.23 85.5388 99.6437 85.5388 99.0179C85.5388 96.9451 86.9193 94.4521 87.4636 93.5466C87.3085 93.3519 87.0881 93.0683 86.8151 92.694C86.6696 92.5986 86.5423 92.5136 86.4654 92.459C86.113 92.2101 85.2069 91.4472 84.642 90.7035C84.5654 90.5985 84.4831 90.4691 84.4008 90.3271C83.2328 90.2925 80.506 90.2141 77.7011 91.0675C78.5661 91.5652 78.7663 92.2101 78.8047 93.0368C76.9581 92.6351 75.3994 92.6112 73.9983 92.8149C74.4863 93.6477 74.9894 94.4866 75.2239 94.8183C76.4467 96.5519 78.2782 98.9305 79.7506 100.406C79.9907 100.646 80.0934 100.962 80.0934 101.349C80.0934 102.261 79.519 103.565 78.8047 105.186L78.4277 106.047L76.2013 111.284L75.8766 111.303C75.7274 111.311 72.2135 111.526 71.0646 111.468C69.8103 111.408 68.8519 111.621 68.2632 112.078C68.3324 112.318 68.3809 112.633 68.294 112.93C68.1782 113.323 67.932 113.521 67.7346 113.623C67.7615 113.679 67.7908 113.738 67.8243 113.804C68.5146 113.573 69.174 113.508 69.174 113.508C69.174 113.508 69.5552 114.01 69.4002 114.636C69.2782 115.115 69.0466 115.367 68.882 115.492C68.9301 115.559 68.9766 115.624 69.0247 115.69C69.8047 115.376 70.6548 115.29 70.6548 115.29C70.6548 115.29 71.0537 115.899 70.9206 116.556C70.8506 116.912 70.671 117.116 70.5066 117.234C71.4471 117.533 73.8776 116.837 75.3912 116.401L77.5846 115.829C78.7129 115.619 79.3435 115.223 79.8343 114.419L80.321 113.361C80.5964 112.722 80.9091 111.998 81.1805 111.572C81.8578 110.509 82.6227 108.953 83.3617 107.449C84.3241 105.489 85.1563 103.796 85.7677 103.23L85.7663 103.231Z" fill="#F2F1F1"/>
<path d="M43.8504 89.7174C43.8533 89.7404 43.8512 89.7586 43.8526 89.7805C43.8603 89.7805 43.8641 89.7805 43.8718 89.7805C43.8641 89.7574 43.8603 89.7385 43.8526 89.7174H43.8504Z" fill="#D78300"/>
<path d="M39.3236 83.6714C38.6436 84.6954 37.4098 85.1726 35.8113 85.3714C36.1129 83.7757 35.8382 82.6857 35.2507 81.4231C34.7392 80.3099 33.3341 78.1275 32.9173 76.8896C32.7996 76.5391 32.6884 76.2141 32.5868 75.9064C30.3632 74.2901 27.9209 72.3236 26.6946 70.699C26.4046 70.3166 25.9687 68.9443 25.1112 66.1223L24.7246 64.8574L24.5246 64.1482C23.9597 62.0723 23.5149 60.9455 23.2023 60.7961C22.9877 60.7457 22.7904 60.7201 22.6012 60.7047L22.6026 60.7073C22.6026 60.7073 22.5038 61.3421 21.4346 61.2927C21.185 61.2812 20.9767 61.1985 20.815 61.1058C20.723 61.1643 20.6369 61.2243 20.5626 61.2854L20.4748 61.3563C20.4214 61.3987 20.3687 61.4432 20.316 61.4878C20.9418 62.0546 21.3935 62.7889 21.3935 62.7889C21.3935 62.7889 21.155 63.4394 20.3393 63.5847C19.7526 63.6863 19.296 63.2689 19.296 63.2689C19.296 63.2689 19.3038 63.066 19.2207 62.7734C18.9737 63.2505 18.8594 63.8056 18.9856 64.4568C19.8129 64.8835 20.5272 65.6555 20.5272 65.6555C20.5272 65.6555 20.508 66.2669 19.6581 66.6959C19.3372 66.8591 19.0096 66.7645 18.7957 66.6614C18.6888 67.2914 19.0423 68.1811 19.6977 68.7801L22.0002 70.6844L22.0502 70.7976C22.7824 72.4462 23.6419 73.9932 24.1423 74.5607C24.3308 74.7754 25.0142 75.9412 26.9185 79.2184C29.4443 83.565 33.2617 90.1338 34.2432 91.2271C34.6218 91.5807 37.2243 90.9734 39.7955 89.9479C38.877 87.4083 39.6747 85.855 39.3239 83.6704L39.3236 83.6714Z" fill="#F4EDF4"/>
<path d="M114.968 68.3755C114.499 66.6639 113.707 65.9582 112.499 65.3173C109.047 63.4858 104.311 64.8473 100.142 66.2676C96.5924 67.4775 95.6136 67.7847 91.9204 68.3501C88.1572 68.928 79.0529 69.9844 75.8176 67.309C75.1691 66.773 74.6056 65.7419 74.5357 64.9571C74.4314 63.6677 74.9758 62.1307 75.5489 61.5052C76.54 60.4198 78.4401 59.9354 81.7111 59.9354C81.7111 59.9354 86.619 60.0123 89.3307 60.0554L89.9024 59.5405L89.3445 58.9436C85.9527 58.722 83.2822 58.5994 81.7358 58.5994C77.7725 58.5994 75.5283 59.2 74.2328 60.6072C73.1772 61.7547 72.7207 63.264 72.8742 65.0935C72.9907 66.4624 73.6049 67.6146 74.7002 68.518C78.1028 71.3339 88.0805 70.6765 92.3782 69.9163C96.5664 69.1774 97.8126 68.8559 100.217 68.0587L100.357 68.0115C102.581 67.2678 108.491 65.2922 111.321 66.7954C112.085 67.1992 112.596 67.9025 112.882 68.9451C113.231 70.2153 113.059 71.2516 112.354 72.1139C109.834 75.1944 101.728 75.6311 97.3738 75.8655L97.2791 75.8692L97.2037 75.85C97.1768 75.8423 94.6497 75.2256 91.3417 75.2064C89.2373 75.1948 87.4579 75.3291 85.5742 75.4715C82.0482 75.7381 78.4029 76.0142 72.3339 75.3198C69.6373 75.0112 67.0956 74.52 65.1064 73.9504C64.981 74.7647 64.6553 75.688 64.2523 76.8855C63.8356 78.1234 62.4338 80.3058 61.9176 81.419C61.3316 82.6816 61.0567 83.7716 61.3555 85.3673C59.7597 85.1684 58.5267 84.6913 57.8446 83.6673C57.3662 86.6641 59.0592 88.4641 55.4982 93.2678C55.1424 91.8146 53.1464 91.3595 53.3219 89.713C52.6955 91.4239 53.7016 92.4166 52.2732 95.2503C51.9135 95.9631 49.9166 98.9064 48.8349 99.7645C48.3963 101.804 47.6258 105.242 46.832 108.072C45.749 111.932 44.8647 113.681 44.4342 114.38L44.2888 114.615L44.0133 114.63C42.868 114.692 40.1728 114.789 39.3194 114.751C38.1335 114.694 37.2054 114.875 36.5899 115.269C36.6461 115.564 36.6784 115.983 36.4995 116.289C36.2856 116.656 35.9875 116.816 35.8312 116.879C35.8581 116.942 35.8908 117.012 35.9304 117.093C36.6982 116.874 37.4727 116.857 37.4727 116.857C37.4727 116.857 37.792 117.502 37.4612 118.283C37.3277 118.599 37.1404 118.756 37.0041 118.834C37.0787 118.941 37.1541 119.046 37.2314 119.15C38.0451 118.79 38.9951 118.696 38.9951 118.696C38.9951 118.696 39.3652 119.176 39.124 120.167C39.0486 120.475 38.8828 120.63 38.742 120.709C39.8148 121.044 42.828 120.243 44.5211 119.792C44.5211 119.792 46.6624 119.265 46.6631 119.265C47.827 119.048 48.4789 118.639 48.9868 117.805C49.0903 117.636 49.2615 117.121 49.4125 116.666C49.4125 116.666 49.6126 116.071 49.6141 116.068C50.0898 114.726 50.4846 113.817 51.4457 112.277C53.6378 108.771 60.1181 98.1731 60.3807 97.3218C60.3883 97.2779 60.3922 97.2245 60.3922 97.1621C60.3922 96.6021 60.1179 95.3628 59.8973 94.5745L59.7576 94.0734C59.7576 94.0734 80.7409 87.9379 81.9556 87.5828C81.532 86.8514 80.6642 85.3509 80.6642 85.3509L81.4292 84.6608C81.4976 84.71 83.1099 85.8817 83.9969 86.768C84.7742 87.5473 85.5255 88.7503 86.3206 90.0232L86.7264 90.6696C87.6244 92.0926 88.51 93.1467 88.5182 93.1577L88.5528 93.1962L88.5759 93.2384C88.5836 93.25 89.2847 94.471 91.4822 96.9139L97.0386 102.995L96.977 103.265C96.9694 103.292 96.3121 106.124 95.155 109.271C94.3969 111.346 93.2673 113.56 92.8176 114.417L92.678 114.679L92.3817 114.695C91.3151 114.755 88.7337 114.892 87.7823 114.849C86.6074 114.792 85.6916 114.975 85.0967 115.373C85.1775 115.65 85.2529 116.077 85.089 116.412C84.9066 116.784 84.6407 116.988 84.4885 117.082C84.5116 117.13 84.5393 117.181 84.5681 117.235C85.2618 117.003 85.9267 116.936 85.9267 116.936C85.9267 116.936 86.2638 117.484 86.1545 118.18C86.0776 118.645 85.8363 118.856 85.6554 118.952C85.7227 119.046 85.7912 119.138 85.8597 119.23C86.6946 118.826 87.7365 118.722 87.7365 118.722C87.7365 118.722 88.0874 119.206 87.9681 119.953C87.9131 120.3 87.6776 120.534 87.491 120.671C88.5699 120.798 90.7319 120.177 92.122 119.776C92.122 119.776 94.3004 119.207 94.3017 119.207C95.4272 118.998 96.0579 118.603 96.5515 117.797C96.7638 117.448 97.9593 114.694 98.4118 113.593C99.7279 110.364 101.67 106.28 102.929 104.095L103.628 102.994C104.041 102.379 104.397 101.847 104.364 101.485C104.32 100.993 104.294 100.979 103.845 100.752C103.321 100.486 102.53 100.084 101.399 98.7539C99.5866 96.6221 99.647 92.5464 99.6991 88.9506L99.7029 86.2448C99.6098 82.69 99.0339 80.3177 98.5678 78.9544L98.3496 78.319L99.0187 78.2594C102.905 77.9139 110.99 77.1955 114.026 73.4803C115.175 72.0758 115.5 70.3094 114.968 68.3729L114.968 68.3755Z" fill="#F4EDF4"/>
<path d="M94.0261 26.6475C94.4812 27.2421 94.8631 27.8959 95.1489 28.6002C94.7799 28.6491 94.4072 28.6833 94.0261 28.6833C93.6445 28.6833 93.2707 28.6527 92.902 28.6042C93.1886 27.8985 93.5696 27.2432 94.0261 26.6475V26.6475Z" fill="white"/>
<path d="M106.548 20.6692C106.552 20.5342 106.567 20.4019 106.567 20.2658C106.567 13.3499 100.941 7.72317 94.0249 7.72317C87.1085 7.72317 81.4823 13.3499 81.4823 20.2658L81.4976 20.6739C77.5227 22.7807 74.8062 26.9566 74.8062 31.7596C74.8062 38.6755 80.4331 44.3022 87.3488 44.3022C89.7342 44.3022 92.0325 43.628 94.0341 42.3636C95.9685 43.5844 98.251 44.3022 100.702 44.3022C107.618 44.3022 113.245 38.6755 113.245 31.7596C113.245 27.1252 110.628 22.8267 106.548 20.6692H106.548ZM93.0556 32.7373L94.0261 32.8085C94.3539 32.8085 94.6753 32.7854 94.9967 32.7596C94.8663 33.7703 94.5388 34.7353 94.0289 35.6147C93.5257 34.7472 93.1885 33.7751 93.0556 32.7376V32.7373ZM99.8772 31.3513C102.267 30.0845 104.192 28.0656 105.354 25.6144C107.282 27.0686 108.419 29.3073 108.419 31.7596C108.419 36.0142 104.957 39.4755 100.703 39.4755C99.6319 39.4755 98.6112 39.255 97.6831 38.8589C99.1274 36.7679 99.8916 34.3328 99.8916 31.7596L99.8762 31.3513H99.8772ZM87.3491 19.2169C87.0201 19.2169 86.6972 19.2401 86.3737 19.2662C86.8583 15.4418 90.0792 12.5497 94.0261 12.5497C97.9483 12.5497 101.189 15.4938 101.672 19.2871L100.703 19.2167C98.3267 19.2167 96.0373 19.8858 94.0398 21.1412C92.0863 19.9119 89.7872 19.2167 87.3491 19.2167V19.2169ZM100.703 24.0437L100.745 24.0465C100.225 24.9651 99.5234 25.763 98.6885 26.3991C98.4007 25.788 98.0716 25.2056 97.6986 24.6596C98.6446 24.2604 99.6673 24.0437 100.702 24.0437H100.703ZM82.6927 25.6216C83.8512 28.0759 85.765 30.0748 88.1764 31.3487C88.1726 31.4856 88.161 31.6214 88.161 31.7596C88.161 34.3907 88.9795 36.8328 90.3696 38.8518C89.4195 39.2559 88.392 39.4755 87.3501 39.4755C83.0955 39.4755 79.6345 36.0142 79.6345 31.7596C79.6345 29.2549 80.8389 27.032 82.6938 25.6216H82.6927ZM89.3616 26.4061C88.5246 25.7676 87.8227 24.9604 87.3059 24.0461C87.3213 24.0457 87.3328 24.0439 87.349 24.0439C88.4128 24.0439 89.4341 24.2625 90.3698 24.6584C89.9832 25.2178 89.6487 25.8018 89.3615 26.4064L89.3616 26.4061Z" fill="#F4EDF4"/>
<path d="M96.4074 32.6315C97.1154 32.4937 97.7975 32.2888 98.4569 32.0369C98.4142 34.2921 97.7124 36.42 96.4177 38.2446C95.8508 37.8672 95.3408 37.4142 94.8926 36.9046C95.7555 35.6259 96.273 34.1686 96.4074 32.6315V32.6315Z" fill="white"/>
<path d="M94.024 9.19887C100.166 9.19887 105.163 14.1959 105.163 20.3376C105.163 26.4794 100.166 31.4763 94.024 31.4763L93.0021 31.4016C93.0405 30.7182 93.161 30.0517 93.371 29.4142L94.0241 29.4574C99.0527 29.4574 103.144 25.3662 103.144 20.3376C103.144 15.3091 99.0527 11.218 94.0241 11.218C89.2349 11.218 85.3593 14.8238 84.9508 19.5247C84.242 19.6624 83.5579 19.8675 82.8964 20.1197C83.0145 14.079 87.9558 9.19887 94.0241 9.19887H94.024Z" fill="white"/>
<path d="M100.7 20.6926L101.718 20.7661C101.68 21.4567 101.555 22.1231 101.347 22.7538L100.7 22.7115C99.3521 22.7115 98.0257 23.0279 96.8159 23.5994C96.3449 23.0558 95.8343 22.5536 95.2824 22.1027C96.9337 21.1807 98.7858 20.6926 100.7 20.6926H100.7Z" fill="white"/>
<path d="M87.347 42.9702C81.2053 42.9702 76.2083 37.9732 76.2083 31.8315C76.2083 25.6898 81.2053 20.693 87.347 20.693C91.7655 20.693 95.6781 23.2394 97.4849 27.2243C96.8865 27.5263 96.2476 27.7592 95.5732 27.897C94.0617 24.7302 90.8942 22.7119 87.347 22.7119C82.3184 22.7119 78.2277 26.8029 78.2277 31.8315C78.2277 36.8601 82.3184 40.9513 87.347 40.9513C88.7028 40.9513 90.0367 40.6317 91.252 40.0541C91.7216 40.5935 92.2302 41.0977 92.7854 41.5501C91.1293 42.4792 89.269 42.9702 87.347 42.9702V42.9702Z" fill="white"/>
<path d="M85.8006 24.2714C86.4799 25.6862 87.5259 26.9169 88.8139 27.8176C88.5865 28.4927 88.419 29.1881 88.3101 29.8989C86.3627 28.7354 84.8313 27.0118 83.8916 24.9428C84.4886 24.6415 85.1274 24.4093 85.8006 24.2714V24.2714Z" fill="white"/>
<path d="M100.7 42.9702C94.558 42.9702 89.5617 37.9732 89.5617 31.8315C89.5617 29.4931 90.2753 27.2843 91.6167 25.3979C92.1809 25.7722 92.6929 26.2229 93.1433 26.7366C92.1226 28.2432 91.5811 29.9914 91.5811 31.8315C91.5811 36.8601 95.6719 40.9513 100.7 40.9513C105.73 40.9513 109.82 36.8601 109.82 31.8315C109.82 28.8079 108.355 26.0642 105.894 24.3568C106.123 23.684 106.29 22.9857 106.403 22.2676C109.733 24.262 111.839 27.9124 111.839 31.8315C111.839 37.9732 106.843 42.9702 100.7 42.9702V42.9702Z" fill="white"/>
</svg>
