<svg width="617" height="150" viewBox="0 0 617 150" fill="none" xmlns="http://www.w3.org/2000/svg">
<g clip-path="url(#clip0_3_536)">
<path d="M243.701 104.316C243.701 103.039 242.869 102.094 241.167 101.726V100.9C242.109 100.9 245.246 101.026 246.129 101.026C246.892 101.026 249.93 100.9 250.875 100.9V101.726C249.296 102.034 248.466 102.966 248.466 104.316V120.527C248.466 125.661 251.286 128.563 257.182 128.563C262.263 128.563 266.216 126.281 266.216 120.909V104.253C266.216 103.049 265.46 102.094 263.557 101.726V100.9C264.249 100.9 266.843 101.026 267.729 101.026C268.485 101.026 271.207 100.9 271.904 100.9V101.726C270.067 102.164 269.25 102.986 269.25 104.253V120.016C269.25 127.09 265.135 131.153 256.254 131.153C247.986 131.153 243.701 127.395 243.701 120.749V104.316Z" fill="#9656A1"/>
<path d="M279.167 129.883C281.091 129.524 281.85 128.55 281.85 127.356V104.95C281.85 103.049 280.838 102.195 279.114 101.724V100.897C280.089 100.97 281.727 101.013 282.563 101.013C283.322 101.013 284.503 101 285.299 100.897L304.733 123.748V104.253C304.733 103.052 303.971 102.098 302.074 101.724V100.897C302.77 100.897 305.271 101.026 306.159 101.026C306.932 101.026 309.612 100.897 310.318 100.897V101.724C308.464 102.161 307.569 102.99 307.569 104.253V131.153H306.398C305.661 130.984 304.269 130.191 302.147 127.863L284.759 107.61V127.356C284.759 128.556 285.451 129.508 287.349 129.883V130.712C286.652 130.712 284.152 130.58 283.263 130.58C282.497 130.58 279.873 130.712 279.167 130.712V129.883Z" fill="#9656A1"/>
<path d="M432.518 123.84H433.341C433.776 125.514 434.734 127.041 436.077 127.923C437.474 128.907 439.666 129.378 441.436 129.378C445.346 129.378 447.824 127.442 447.824 124.377C447.824 121.203 444.65 119.555 440.847 117.655C438.017 116.239 432.459 113.901 432.459 108.528C432.459 103.523 436.276 100.41 442.382 100.41C446.411 100.41 448.302 101.394 451.021 101.268L450.969 107.341H450.139C449.051 103.762 445.801 102.515 442.242 102.515C438.263 102.515 436.774 104.791 436.774 107.105C436.774 110.419 440.017 112.089 443.691 113.729C447.824 115.569 452.308 117.894 452.308 123.071C452.308 127.972 448.474 131.521 441.466 131.521C437.297 131.521 434.797 130.331 432.605 130.061L432.518 123.84Z" fill="#9656A1"/>
<path d="M516.036 118.378L508.123 105.683C506.773 103.455 505.739 102.28 504.233 101.723V100.9C505.317 100.9 508.246 101.03 509.078 101.03C509.831 101.03 512.991 100.9 514.132 100.9V101.723C513.121 101.902 512.647 102.409 512.647 103.172C512.647 103.845 513.105 104.711 513.565 105.464C514.017 106.21 519.4 115.138 519.4 115.138L525.02 105.468C525.588 104.499 525.989 103.537 525.989 102.903C525.989 102.326 525.58 101.849 524.623 101.723V100.9C525.574 100.9 527.574 101.03 528.211 101.03C528.848 101.03 531.146 100.9 532.091 100.9V101.667C529.929 102.553 528.579 104.449 527.269 106.648L520.076 118.67L516.036 118.378ZM520.566 117.155V127.296C520.566 128.301 521.332 129.565 523.063 129.882V130.712C522.099 130.712 518.948 130.579 518.036 130.579C517.27 130.579 514.248 130.712 513.157 130.712V129.882C514.895 129.565 515.728 128.301 515.728 127.296V117.599" fill="#9656A1"/>
<path d="M369.002 100.9H387.557C388.131 100.9 389.136 100.834 389.71 100.585H390.54L390.41 106.614H389.587C388.881 104.718 388.148 103.199 384.557 103.199H376.5V113.705H382.709C383.615 113.705 384.712 113.629 385.187 113.516C386.582 113.211 387.197 112.434 387.479 111.244H388.307C388.248 112.153 388.248 114.226 388.248 114.84C388.248 115.456 388.307 117.638 388.307 118.627H387.479C387.08 117.439 386.537 116.537 385.187 116.206C384.712 116.08 383.595 115.977 382.709 115.977H376.5V128.301H385.263C389.09 128.301 390.202 126.706 391.153 124.451L391.972 124.642L391.153 130.835C388.307 130.583 386.6 130.583 383.369 130.583H374.11C373.218 130.583 369.944 130.713 368.992 130.713V129.886C370.664 129.568 371.639 128.741 371.639 127.14V104.346C371.639 102.934 370.879 102.051 369.002 101.736V100.9Z" fill="#9656A1"/>
<path d="M321.61 104.509C321.61 102.98 320.698 102.138 318.91 101.753V100.934C319.906 100.934 323.127 101.059 324.065 101.059C324.851 101.059 328.161 100.934 329.169 100.934V101.753C327.391 102.138 326.459 102.9 326.459 104.509V127.144C326.459 128.672 327.375 129.505 329.169 129.882V130.712C328.164 130.712 324.99 130.582 324.065 130.582C323.265 130.582 319.906 130.712 318.907 130.712V129.882C320.735 129.541 321.61 128.742 321.61 127.144V104.509Z" fill="#9656A1"/>
<path d="M462.37 104.509C462.37 102.98 461.448 102.138 459.664 101.753V100.934C460.659 100.934 463.882 101.059 464.813 101.059C465.607 101.059 468.916 100.934 469.921 100.934V101.753C468.144 102.138 467.215 102.9 467.215 104.509V127.144C467.215 128.672 468.131 129.505 469.921 129.882V130.712C468.923 130.712 465.752 130.582 464.813 130.582C464.028 130.582 460.659 130.712 459.664 130.712V129.882C461.487 129.541 462.37 128.742 462.37 127.144V104.509Z" fill="#9656A1"/>
<path d="M488.161 101.026C477.99 101.026 476.362 100.837 474.282 100.708L474.299 106.85H475.128C475.887 104.127 477.403 103.494 479.367 103.494H485.747V127.144C485.747 128.741 484.872 129.541 483.041 129.882V130.712C484.046 130.712 487.435 130.582 488.218 130.582C489.15 130.582 492.334 130.712 493.326 130.712V129.882C491.527 129.505 490.616 128.672 490.616 127.144V103.494H496.946C498.983 103.494 500.439 104.187 501.198 106.85H502.017L502.031 100.708C499.965 100.837 498.337 101.026 488.161 101.026Z" fill="#9656A1"/>
<path d="M406.995 127.143C406.995 128.672 407.967 129.501 409.761 129.882V130.712C408.766 130.712 405.513 130.582 404.584 130.582C403.788 130.582 400.611 130.712 399.61 130.712V129.882C401.275 129.564 402.256 128.742 402.256 127.143V104.277C402.256 102.871 401.49 101.985 399.617 101.667V100.844C400.611 100.844 403.758 100.97 404.647 100.97C406.104 100.97 410.242 100.725 411.871 100.725C419.001 100.725 422.971 103.673 422.971 108.727C422.971 112.7 420.015 115.387 415.465 116.484C415.465 116.484 416.504 117.087 417.538 118.292C418.796 119.774 422.191 124.646 423.6 126.35C425.007 128.059 426.808 129.965 428.737 130.052V130.718C427.813 130.92 426.33 131.097 425.196 131.097C422.775 131.097 420.842 130.241 418.965 127.97C417.34 125.992 414.584 121.89 412.961 119.817C411.924 118.497 410.666 117.466 408.365 117.087C407.92 117.012 407.5 116.948 406.995 116.889V127.143ZM406.995 114.992C407.944 115.121 409.34 115.181 410.72 115.181C416.302 115.181 418.059 111.97 418.059 109.129C418.059 105.109 415.376 102.618 410.491 102.618C409.48 102.618 408.013 102.745 406.995 102.936V114.992Z" fill="#9656A1"/>
<path d="M336.319 104.605C335.669 103.165 334.671 102.111 332.969 101.737V100.897C334.027 100.897 337.692 101.03 338.497 101.03C339.238 101.03 342.441 100.897 343.529 100.897V101.713C342.563 101.898 341.463 102.432 341.463 103.421C341.463 104.127 341.89 105.089 342.71 106.9L350.39 124.377L357.66 106.87C358.234 105.457 358.649 104.363 358.649 103.527C358.649 102.602 357.796 101.961 356.588 101.713V100.897C357.554 100.897 359.922 101.03 360.658 101.03C361.331 101.03 364.111 100.897 365.172 100.897V101.737C363.358 102.227 362.253 103.225 361.235 105.59L350.536 130.817H348.115L336.319 104.605Z" fill="#9656A1"/>
<path d="M363.749 25.0437C362.513 22.314 360.615 20.3241 357.402 19.6113V18.0226C359.401 18.0226 366.041 18.2614 367.566 18.2614C368.973 18.2614 375.403 18.0226 377.453 18.0226V19.5715C375.635 19.9268 373.546 20.9416 373.546 22.815C373.546 24.1378 374.368 25.9662 375.894 29.3915L390.463 62.5128L404.249 29.3352C405.324 26.649 406.126 24.596 406.126 23.0073C406.126 21.2428 404.495 20.0462 402.21 19.5715V18.0226C404.033 18.0226 408.468 18.2614 409.877 18.2614C411.158 18.2614 416.424 18.0226 418.427 18.0226V19.5219C414.991 20.4541 412.889 22.4274 410.975 26.9074L390.708 74.7275H386.122L363.749 25.0437Z" fill="#9656A1"/>
<path d="M167.573 72.9068C170.219 72.3029 172.08 71.0995 172.08 68.1016V24.2611C172.08 21.3826 170.348 20.1883 167.573 19.4656V17.91C168.962 17.91 174.948 18.1458 176.404 18.1458C178.082 18.1458 184.357 17.91 185.737 17.91V19.4656C183.093 20.0658 181.133 21.2662 181.133 24.2611V42.5746H213.793V24.2611C213.793 21.2662 212.052 20.0658 209.293 19.4656V17.91C210.672 17.91 216.835 18.1458 218.509 18.1458C219.955 18.1458 226.081 17.91 227.447 17.91V19.4656C224.801 20.0658 222.841 21.2662 222.841 24.2611V68.1016C222.841 70.9801 224.681 72.1872 227.447 72.9068V74.3423C226.081 74.3423 219.955 74.2236 218.509 74.2236C216.835 74.2236 210.672 74.3423 209.293 74.3423V72.9068C211.92 72.3029 213.793 71.0995 213.793 68.1016V47.3828H181.133V68.1016C181.133 71.0995 182.971 72.1872 185.737 72.9068V74.3423C184.357 74.3423 178.082 74.2236 176.404 74.2236C174.948 74.2236 168.962 74.3423 167.573 74.3423V72.9068Z" fill="#9656A1"/>
<path d="M545.347 72.9066C548.736 72.3026 550.604 70.9565 550.604 67.8625V24.2609C550.604 21.2562 548.762 20.0656 545.487 19.4654V17.9097C547.373 17.9097 553.515 18.1456 555.217 18.1456C557.963 18.1456 565.623 17.5454 571.587 17.5454C591.678 17.5454 603.875 28.7649 603.875 45.8247C603.875 62.4067 591.183 74.6943 570.468 74.6943C564.496 74.6943 557.412 74.2234 554.64 74.2234C552.955 74.2234 547.227 74.4615 545.347 74.4615V72.9066ZM559.651 70.0176C561.697 70.3894 565.478 70.6215 568.459 70.6215C585.336 70.6215 594.122 60.4634 594.122 46.2957C594.122 31.6073 584.852 21.2727 569.073 21.2727C565.849 21.2727 561.82 21.5146 559.651 21.8669V70.0176Z" fill="#9656A1"/>
<path d="M317.936 67.7027C317.936 70.6082 319.776 72.1864 323.162 72.906V74.4617C321.275 74.4617 315.13 74.2228 313.363 74.2228C311.87 74.2228 305.84 74.4617 303.957 74.4617V72.906C307.101 72.3028 308.955 70.7374 308.955 67.7027V24.4136C308.955 21.7499 307.516 20.0658 303.963 19.4649V17.9092C305.851 17.9092 311.807 18.1451 313.478 18.1451C316.241 18.1451 324.075 17.6846 327.165 17.6846C340.677 17.6846 348.198 23.2726 348.198 32.8304C348.198 40.3654 342.587 45.4358 333.975 47.5285C333.975 47.5285 335.928 48.6666 337.894 50.9576C340.278 53.7602 346.859 63.1791 349.519 66.4054C352.178 69.6362 355.59 73.244 359.239 73.4101V74.681C357.491 75.0581 354.692 75.3804 352.553 75.3804C347.946 75.3804 344.288 73.7684 340.73 69.4567C337.662 65.7158 332.296 57.7632 329.221 53.8369C327.258 51.3355 324.891 49.3862 320.543 48.6666C319.687 48.5201 318.881 48.4074 317.936 48.3015V67.7027ZM317.936 44.7102C319.723 44.9453 322.366 45.0647 324.987 45.0647C335.553 45.0647 338.872 38.9825 338.872 33.6094C338.872 25.979 333.791 21.2722 324.535 21.2722C322.628 21.2722 319.85 21.5148 317.936 21.8664V44.7102Z" fill="#9656A1"/>
<path d="M496.015 67.7027C496.015 70.6082 497.862 72.1864 501.252 72.906V74.4617C499.368 74.4617 493.229 74.2228 491.461 74.2228C489.942 74.2228 483.933 74.4617 482.042 74.4617V72.906C485.18 72.3028 487.038 70.7374 487.038 67.7027V24.4136C487.038 21.7499 485.585 20.0658 482.053 19.4649V17.9092C483.947 17.9092 489.883 18.1451 491.568 18.1451C494.337 18.1451 502.166 17.6846 505.238 17.6846C518.772 17.6846 526.27 23.2726 526.27 32.8304C526.27 40.3654 520.673 45.4358 512.054 47.5285C512.054 47.5285 514.017 48.6666 515.967 50.9576C518.374 53.7602 524.954 63.1791 527.604 66.4054C530.273 69.6362 533.686 73.244 537.314 73.4101V74.681C535.59 75.0581 532.775 75.3804 530.658 75.3804C526.042 75.3804 522.367 73.7684 518.818 69.4567C515.75 65.7158 510.401 57.7632 507.3 53.8369C505.337 51.3355 502.977 49.3862 498.638 48.6666C497.77 48.5201 496.973 48.4074 496.015 48.3015V67.7027ZM496.015 44.7102C497.825 44.9453 500.452 45.0647 503.075 45.0647C513.646 45.0647 516.955 38.9825 516.955 33.6094C516.955 25.979 511.871 21.2722 502.632 21.2722C500.707 21.2722 497.942 21.5148 496.015 21.8664V44.7102Z" fill="#9656A1"/>
<path d="M236.04 72.8964C239.615 72.0611 241.578 69.746 242.882 66.6482L260.97 23.127C261.739 21.3264 262.634 17.6247 262.634 17.6247H267.696C267.696 17.6247 268.601 21.3362 269.354 23.1405L288.469 66.7676C289.833 69.7723 291.308 71.9417 295.109 72.8964L295.099 74.3462C293.03 74.3462 286.596 74.2268 285.133 74.2268C283.677 74.2268 277.532 74.3462 275.466 74.3462L275.473 72.8964C278.255 72.2136 279.134 70.7977 279.134 69.4275C279.134 68.264 278.653 66.9502 278.069 65.5876L273.96 56.2145H252.897L249.134 65.6401C248.712 66.7083 248.211 68.2174 248.211 69.2352C248.211 70.8074 249.034 72.0611 252.191 72.8964L252.184 74.3462C250.314 74.3462 245.376 74.2268 244.219 74.2268L236.037 74.3462L236.04 72.8964ZM272.053 51.7706L263.059 30.8145L254.682 51.7706H272.053Z" fill="#9656A1"/>
<path d="M415.236 72.8964C418.809 72.0611 420.778 69.746 422.075 66.6482L440.169 23.127C440.939 21.3264 441.844 17.6247 441.844 17.6247H446.905C446.905 17.6247 447.801 21.3362 448.551 23.1405L467.673 66.7676C469.025 69.7723 470.515 71.9417 474.299 72.8964L474.292 74.3462C472.23 74.3462 465.789 74.2268 464.316 74.2268C462.874 74.2268 456.732 74.3462 454.662 74.3462V72.8964C457.462 72.2136 458.327 70.7977 458.327 69.4275C458.327 68.264 457.852 66.9502 457.279 65.5876L453.154 56.2145H432.09L428.323 65.6401C427.902 66.7083 427.405 68.2174 427.405 69.2352C427.405 70.8074 428.227 72.0611 431.384 72.8964V74.3462C429.507 74.3462 424.576 74.2268 423.412 74.2268L415.23 74.3462L415.236 72.8964ZM451.25 51.7706L442.249 30.8145L433.878 51.7706H451.25Z" fill="#9656A1"/>
<path d="M0.576836 0.313191H126.694V47.9538C126.694 69.782 118.569 116.073 64.1062 150.524C64.1062 150.524 5.09361 125.879 0.576836 47.9538L0.576836 0.313191Z" fill="#9656A1"/>
<path d="M0.318283 0.187178H126.558V47.8609C126.558 69.6966 118.423 116.013 63.9107 150.488C63.9107 150.488 4.84182 125.827 0.318283 47.8609L0.318283 0.187178Z" stroke="#9656A1" stroke-width="0.306667"/>
<path d="M96.0336 61.5313C96.0336 61.5313 94.9091 65.1158 89.9086 61.4314L72.7391 61.0167C72.7391 61.0167 70.4909 61.7401 70.1852 59.3882C70.1852 59.3882 70.5968 54.6896 70.388 54.278C70.388 54.278 70.4909 52.9514 68.2351 52.9514C68.2351 52.9514 64.7662 53.3593 64.6633 50.2885C64.6633 50.2885 64.0571 47.0187 68.8556 47.1276C68.8556 47.1276 70.388 47.8405 70.4909 45.8942C70.4909 45.8942 70.2888 32.6053 70.388 31.5904C70.388 31.5904 70.7989 30.3698 68.444 30.161C68.444 30.161 65.075 30.8738 64.6633 28.6323C64.6633 28.6323 64.4613 25.2596 66.7133 25.0508C66.7133 25.0508 69.4693 25.2596 69.9794 24.54C69.9794 24.54 70.5968 24.9441 70.4909 22.5035L70.5968 18.3045C70.5968 18.3045 70.892 17.1838 72.6332 17.2934C72.6332 17.2934 75.8032 17.4955 76.2178 17.1838C76.2178 17.1838 76.9247 16.2688 77.1335 15.8534C77.1335 15.8534 78.7718 15.7543 79.0738 16.1652C79.0738 16.1652 81.5278 17.8005 90.8265 17.1838C90.8265 17.1838 92.2598 17.1838 92.558 17.5954C92.558 17.5954 94.3022 18.9212 95.3208 17.4955C95.3208 17.4955 96.8532 17.1838 101.45 17.2934C101.45 17.2934 106.464 18.6162 109.93 15.7543L111.057 15.9601C111.057 15.9601 112.486 18.3045 113.508 17.5954C113.508 17.5954 116.576 17.2934 117.083 17.9034C117.083 17.9034 118.101 19.426 117.594 23.4252C117.594 23.4252 116.987 25.1567 119.949 25.1567C119.949 25.1567 123.325 24.54 122.91 27.7069C122.91 27.7069 123.828 31.2855 118.214 30.7777C118.214 30.7777 117.495 31.7993 117.594 32.5159C117.594 32.5159 117.495 44.1597 117.392 45.4961C117.392 45.4961 117.292 47.3372 119.74 47.2305C119.74 47.2305 123.013 47.0187 123.122 49.9865C123.122 49.9865 123.527 53.8701 118.821 53.1505C118.821 53.1505 117.392 53.3593 117.179 54.278L116.987 59.3882C116.987 59.3882 117.083 61.9422 114.228 61.3254C113.82 61.3254 98.2887 61.6409 96.9561 61.233C96.9561 61.233 96.2327 61.1301 96.0336 61.5313Z" fill="white"/>
<path d="M63.0255 78.6105C63.0255 78.6105 63.7421 78.3085 63.9442 77.8045C63.9442 77.8045 66.0933 77.5949 66.3945 77.2907L73.1437 77.8045C73.1437 77.8045 79.7833 78.3085 82.6453 76.2556C82.6453 76.2556 83.6736 76.2556 84.3895 76.5673C84.3895 76.5673 85.8122 76.879 86.2201 77.483L90.1074 77.3801C90.1074 77.3801 92.3556 78.1027 92.1468 79.5352V81.3695C92.1468 81.3695 91.7359 85.051 92.7575 85.2598H95.7284C95.7284 85.2598 98.1832 86.3813 97.8745 87.81C97.8745 87.81 97.9774 89.8465 95.835 90.2611C95.835 90.2611 93.6792 90.871 92.9723 90.7749C92.9723 90.7749 92.2527 91.6906 92.1468 92.8143L91.8486 106.203C91.8486 106.203 91.6398 107.633 93.7888 107.43C93.7888 107.43 96.949 107.122 97.8745 108.866C97.8745 108.866 98.6932 111.824 97.0587 112.335L95.835 112.942L93.1714 113.367C93.1714 113.367 92.0544 113.459 91.9477 115.4V118.971C91.9477 118.971 92.0544 121.432 90.1074 121.432L87.2454 121.637C87.2454 121.637 86.5318 122.241 85.1031 121.833C85.1031 121.833 67.7278 122.148 67.1141 121.94L65.0687 122.354C65.0687 122.354 62.8227 124.397 60.9823 122.858L59.5528 121.734C59.5528 121.734 58.5282 121.94 58.1271 121.833C57.7162 121.734 38.9115 122.042 38.9115 122.042C38.9115 122.042 34.925 122.457 34.623 121.121C34.623 121.121 34.113 115.914 34.3151 115.29C34.3151 115.29 34.3151 113.764 33.3964 113.665C33.3964 113.665 29.4099 113.459 29.307 113.045C29.307 113.045 27.1579 111.52 27.7716 109.99C27.7716 109.99 28.4913 107.938 30.6336 107.735C30.6336 107.735 33.9034 108.252 33.9034 107.331C33.9034 107.331 34.113 106.717 34.113 105.699C34.113 105.699 34.3151 93.5309 34.2122 92.7152C34.2122 92.7152 34.5171 91.1828 33.1876 91.1828C33.1876 91.1828 31.7581 91.5877 30.8424 90.9777C30.8424 90.9777 28.3883 91.0806 27.8775 89.1366C27.8775 89.1366 27.4667 87.9129 28.0766 86.8816C28.0766 86.8816 29.2049 84.6363 32.4747 85.3552C32.4747 85.3552 34.3151 85.8698 34.5171 84.5462L34.421 79.6313C34.421 79.6313 34.0063 78.3085 36.5633 77.5949C36.5633 77.5949 39.8332 78.5106 40.8517 76.879C40.8517 76.879 41.9792 74.6233 42.8882 76.1564C42.8882 76.1564 44.8382 78.0005 50.1512 77.8045C50.1512 77.8045 59.3508 77.0818 59.5528 77.483C59.5528 77.483 61.8018 77.8045 62.4118 78.5106L63.0255 78.6105Z" fill="white"/>
<path d="M35.2436 61.5312C35.2436 61.5312 34.1161 65.1157 29.1088 61.4282L11.9423 61.0166C11.9423 61.0166 9.69407 61.74 9.38534 59.3858C9.38534 59.3858 9.79698 54.6895 9.5844 54.2779C9.5844 54.2779 9.69407 52.9445 7.44207 52.9445C7.44207 52.9445 3.97317 53.3622 3.87327 50.2952C3.87327 50.2952 3.25656 47.0148 8.05878 47.1275C8.05878 47.1275 9.5844 47.8403 9.69407 45.8978C9.69407 45.8978 9.48825 32.6149 9.5844 31.5873C9.5844 31.5873 10.0021 30.3734 7.65089 30.1638C7.65089 30.1638 4.27439 30.8737 3.87327 28.6255C3.87327 28.6255 3.66444 25.2595 5.90969 25.0506C5.90969 25.0506 8.66948 25.2595 9.18328 24.5526C9.18328 24.5526 9.79698 24.9477 9.69407 22.4929L9.79698 18.3081C9.79698 18.3081 10.105 17.1836 11.8327 17.2866C11.8327 17.2866 15.0101 17.4886 15.421 17.1837C15.421 17.1837 16.1346 16.2687 16.3299 15.8533C16.3299 15.8533 17.975 15.7572 18.2799 16.1553C18.2799 16.1553 20.7272 17.8004 30.0365 17.1837C30.0365 17.1837 31.4592 17.1836 31.7679 17.5953C31.7679 17.5953 33.5024 18.9211 34.524 17.4886C34.524 17.4886 36.0563 17.1836 40.6588 17.2866C40.6588 17.2866 45.657 18.6131 49.1364 15.7572L50.2572 15.9668C50.2572 15.9668 51.6867 18.3081 52.718 17.5953C52.718 17.5953 55.779 17.2866 56.2928 17.9033C56.2928 17.9033 57.3174 19.4357 56.7969 23.4251C56.7969 23.4251 56.1899 25.1596 59.1518 25.1596C59.1518 25.1596 62.5208 24.5526 62.1166 27.7068C62.1166 27.7068 63.0383 31.2853 57.4173 30.7775C57.4173 30.7775 56.6977 31.8021 56.7969 32.5158C56.7969 32.5158 56.6977 44.1596 56.5978 45.496C56.5978 45.496 56.4987 47.3235 58.9497 47.2304C58.9497 47.2304 62.2196 47.0148 62.3187 49.9902C62.3187 49.9902 62.7266 53.87 58.0303 53.1504C58.0303 53.1504 56.5978 53.3622 56.389 54.2779L56.1899 59.3858C56.1899 59.3858 56.2928 61.942 53.4241 61.3321C53.0162 61.3321 37.4926 61.6341 36.1585 61.2329C36.1585 61.2329 35.4456 61.13 35.2436 61.5312Z" fill="white"/>
<path d="M96.0336 61.5313C96.0336 61.5313 94.9091 65.1158 89.9086 61.4314L72.7391 61.0167C72.7391 61.0167 70.4909 61.7401 70.1852 59.3882C70.1852 59.3882 70.5968 54.6896 70.388 54.278C70.388 54.278 70.4909 52.9514 68.2351 52.9514C68.2351 52.9514 64.7662 53.3593 64.6633 50.2885C64.6633 50.2885 64.0571 47.0187 68.8556 47.1276C68.8556 47.1276 70.388 47.8405 70.4909 45.8942C70.4909 45.8942 70.2888 32.6053 70.388 31.5904C70.388 31.5904 70.7989 30.3698 68.444 30.161C68.444 30.161 65.075 30.8738 64.6633 28.6323C64.6633 28.6323 64.4613 25.2596 66.7133 25.0508C66.7133 25.0508 69.4693 25.2596 69.9794 24.54C69.9794 24.54 70.5968 24.9441 70.4909 22.5035L70.5968 18.3045C70.5968 18.3045 70.892 17.1838 72.6332 17.2934C72.6332 17.2934 75.8032 17.4955 76.2178 17.1838C76.2178 17.1838 76.9247 16.2688 77.1335 15.8534C77.1335 15.8534 78.7718 15.7543 79.0738 16.1652C79.0738 16.1652 81.5278 17.8005 90.8265 17.1838C90.8265 17.1838 92.2598 17.1838 92.558 17.5954C92.558 17.5954 94.3022 18.9212 95.3208 17.4955C95.3208 17.4955 96.8532 17.1838 101.45 17.2934C101.45 17.2934 106.464 18.6162 109.93 15.7543L111.057 15.9601C111.057 15.9601 112.486 18.3045 113.508 17.5954C113.508 17.5954 116.576 17.2934 117.083 17.9034C117.083 17.9034 118.101 19.426 117.594 23.4252C117.594 23.4252 116.987 25.1567 119.949 25.1567C119.949 25.1567 123.325 24.54 122.91 27.7069C122.91 27.7069 123.828 31.2855 118.214 30.7777C118.214 30.7777 117.495 31.7993 117.594 32.5159C117.594 32.5159 117.495 44.1597 117.392 45.4961C117.392 45.4961 117.292 47.3372 119.74 47.2305C119.74 47.2305 123.013 47.0187 123.122 49.9865C123.122 49.9865 123.527 53.8701 118.821 53.1505C118.821 53.1505 117.392 53.3593 117.179 54.278L116.987 59.3882C116.987 59.3882 117.083 61.9422 114.228 61.3254C113.82 61.3254 98.2887 61.6409 96.9561 61.233C96.9561 61.233 96.2327 61.1301 96.0336 61.5313Z" fill="#9656A1"/>
<path d="M96.0336 61.5341C96.0336 61.5341 94.9091 65.1195 89.9086 61.435L72.7354 61.0203C72.7354 61.0203 70.4871 61.743 70.1822 59.3888C70.1822 59.3888 70.5968 54.6895 70.3842 54.2778C70.3842 54.2778 70.4871 52.9513 68.2351 52.9513C68.2351 52.9513 64.7632 53.3629 64.6603 50.2914C64.6603 50.2914 64.0534 47.0215 68.8518 47.1275C68.8518 47.1275 70.3842 47.8411 70.4871 45.8978C70.4871 45.8978 70.2851 32.6081 70.3842 31.5903C70.3842 31.5903 70.7989 30.3666 68.444 30.1608C68.444 30.1608 65.0712 30.8744 64.6603 28.6322C64.6603 28.6322 64.4613 25.2557 66.7095 25.0506C66.7095 25.0506 69.4655 25.2557 69.9771 24.5398C69.9771 24.5398 70.5968 24.9439 70.4871 22.4996L70.5968 18.3014C70.5968 18.3014 70.8883 17.1806 72.6362 17.2903C72.6362 17.2903 75.8032 17.4924 76.2148 17.1806C76.2148 17.1806 76.9216 16.2687 77.1335 15.8533C77.1335 15.8533 78.7688 15.7511 79.0737 16.1628C79.0737 16.1628 81.5248 17.7973 90.8265 17.1806C90.8265 17.1806 92.2598 17.1806 92.558 17.5915C92.558 17.5915 94.3022 18.9181 95.3208 17.4924C95.3208 17.4924 96.8532 17.1806 101.45 17.2903C101.45 17.2903 106.464 18.6131 109.933 15.7511L111.061 15.9532C111.061 15.9532 112.489 18.3014 113.508 17.5915C113.508 17.5915 116.576 17.2903 117.083 17.8965C117.083 17.8965 118.104 19.4259 117.597 23.4183C117.597 23.4183 116.987 25.1565 119.952 25.1565C119.952 25.1565 123.325 24.5398 122.91 27.7037C122.91 27.7037 123.828 31.2853 118.214 30.7745C118.214 30.7745 117.498 31.7961 117.597 32.5157C117.597 32.5157 117.498 44.1596 117.395 45.4929C117.395 45.4929 117.292 47.3333 119.743 47.2341C119.743 47.2341 123.019 47.0215 123.125 49.9864C123.125 49.9864 123.527 53.87 118.824 53.1503C118.824 53.1503 117.395 53.3629 117.183 54.2778L116.987 59.3888C116.987 59.3888 117.083 61.9458 114.231 61.3291C113.824 61.3291 98.2886 61.6408 96.9561 61.2329C96.9561 61.2329 96.2327 61.133 96.0336 61.5341Z" stroke="#9656A1" stroke-width="0.0133333"/>
<path d="M76.7222 19.4287C76.7222 19.4287 76.9243 21.4749 76.9243 21.9924C76.9243 22.4995 76.6231 51.5186 76.6231 51.5186C76.6231 51.5186 76.9243 53.7669 74.9908 54.8944C74.9908 54.8944 74.4732 55.0934 74.3771 53.6639L74.5769 23.017C74.5769 23.017 74.7819 19.2259 76.7222 19.4287" fill="white"/>
<path d="M76.7255 19.4262C76.7255 19.4262 76.9246 21.4724 76.9246 21.9899C76.9246 22.5 76.6264 51.5229 76.6264 51.5229C76.6264 51.5229 76.9246 53.7711 74.9911 54.8949C74.9911 54.8949 74.4735 55.0977 74.3706 53.6682L74.5764 23.0145C74.5764 23.0145 74.7785 19.2234 76.7255 19.4262V19.4262Z" stroke="#9656A1" stroke-width="0.016"/>
<path d="M73.3526 55.1967C73.3526 55.1967 73.5554 26.3804 73.4592 25.8696C73.3526 25.3656 73.5554 26.2872 73.5554 26.2872C73.5554 26.2872 73.2496 21.2724 74.58 19.2232C74.58 19.2232 74.1653 17.4956 71.8172 19.6379L71.7143 23.8227C71.7143 23.8227 71.7143 26.1776 69.5719 26.0747C69.5719 26.0747 67.1178 25.9687 65.9933 27.0932C65.9933 27.0932 65.3804 29.3445 67.7278 28.9404C67.7278 28.9404 71.4093 28.9404 71.6151 30.4622L71.4093 45.8972C71.4093 45.8972 72.2281 48.464 69.3699 48.464C69.3699 48.464 65.8844 48.2454 65.9933 50.3915C65.9933 50.3915 66.713 52.2281 69.6748 51.6212C69.6748 51.6212 71.8172 52.0223 71.7143 54.0752V57.9558C71.7143 57.9558 71.5084 59.4979 73.5554 59.5941H89.4967C89.4967 59.5941 90.3094 59.6932 90.3094 58.6716C90.3094 58.6716 90.2103 57.8566 88.9859 57.8566L75.7037 57.6508C75.7037 57.6508 73.5554 58.3704 73.3526 55.1967Z" fill="white"/>
<path d="M76.4203 55.1504C76.4203 55.1504 76.0094 56.5799 77.5411 56.2809H88.0679L90.9231 56.9014C90.9231 56.9014 93.885 56.1787 90.9231 54.5465C90.9231 54.5465 81.5245 54.6396 80.7087 54.4405C80.7087 54.4405 78.7655 53.9328 78.3471 53.8306C78.3471 53.8306 77.336 53.4227 76.4203 55.1504Z" fill="white"/>
<path d="M76.417 55.1503C76.417 55.1503 76.0061 56.5828 77.5378 56.2846H88.0676L90.9236 56.9043C90.9236 56.9043 93.8877 56.1787 90.9236 54.5434C90.9236 54.5434 81.5242 54.6358 80.7047 54.4405C80.7047 54.4405 78.7622 53.9297 78.3475 53.8268C78.3475 53.8268 77.3327 53.4189 76.417 55.1503Z" stroke="#9656A1" stroke-width="0.016"/>
<path d="M93.8879 56.5827C93.8879 56.5827 91.9476 56.5827 92.0476 59.1427C92.0476 59.1427 92.2526 61.0762 94.2958 61.0762C94.2958 61.0762 96.1294 60.775 95.9341 58.7318C95.9341 58.7318 94.8066 56.1778 93.8879 56.5827" fill="white"/>
<path d="M95.3206 55.5648C95.3206 55.5648 96.2392 54.5469 96.856 54.5469C96.856 54.5469 107.074 55.4619 108.799 54.2382C108.799 54.2382 110.341 53.9332 110.752 54.2382C110.752 54.2382 112.281 55.4619 112.281 56.1785C112.281 56.1785 112.181 57.1032 110.341 56.5796C110.341 56.5796 98.7932 56.6923 98.1795 56.6923C98.1795 56.6923 95.0058 57.4021 95.3206 55.5648" fill="white"/>
<path d="M95.3173 55.565C95.3173 55.565 96.2359 54.5434 96.8526 54.5434C96.8526 54.5434 107.074 55.459 108.802 54.2346C108.802 54.2346 110.344 53.9297 110.755 54.2346C110.755 54.2346 112.284 55.459 112.284 56.1817C112.284 56.1817 112.185 57.1071 110.344 56.5828C110.344 56.5828 98.7899 56.6955 98.1762 56.6955C98.1762 56.6955 95.0025 57.4053 95.3173 55.565V55.565Z" stroke="#9656A1" stroke-width="0.016"/>
<path d="M96.6472 58.8777C96.6472 58.8777 96.6472 58.0514 98.0797 58.0514L112.38 57.9522C112.38 57.9522 113.714 58.6688 113.714 56.2208C113.714 56.2208 114.237 45.0817 114.284 32.8174C114.3 29.1659 114.466 25.3357 114.337 21.7865C114.337 21.7865 114.019 20.2511 113.608 19.9393C113.608 19.9393 113.608 18.3078 115.348 18.9215C115.348 18.9215 116.881 19.0244 116.473 21.3823L116.579 24.9436C116.579 24.9436 116.271 26.4858 119.023 26.0719C119.023 26.0719 121.779 26.4858 121.889 27.5006C121.889 27.5006 122.704 29.5535 119.441 29.3447H117.08C117.08 29.3447 116.062 29.9554 116.367 31.1858L116.062 46.0064C116.062 46.0064 115.856 48.5566 118.31 48.4605C118.31 48.4605 120.86 48.3545 121.374 49.1741C121.374 49.1741 123.122 51.7273 119.335 51.5222C119.335 51.5222 116.984 51.4156 116.473 51.8302C116.473 51.8302 116.062 52.3372 115.756 57.1462C115.756 57.1462 115.965 60.0082 113.816 59.6934C113.816 59.6934 99.6091 59.8955 98.2825 59.5943C98.2825 59.5943 96.853 60.0082 96.6472 58.8777" fill="white"/>
<path d="M78.2575 18.5004L77.9488 51.313C77.9488 51.313 77.8496 52.8356 80.4036 53.1436C80.4036 53.1436 83.3647 53.4486 84.0746 53.1436C84.0746 53.1436 86.0284 53.0377 91.0259 53.2465C91.0259 53.2465 92.2593 54.4837 92.3622 52.9385C92.3622 52.9385 93.1713 26.3802 92.7739 20.8486C92.7739 20.8486 92.6612 18.5004 90.9298 18.3975C90.9298 18.3975 83.1627 19.0248 82.4468 18.3975L79.379 17.5885C79.379 17.5885 78.1516 17.6877 78.2575 18.5004Z" fill="white"/>
<path d="M94.3989 20.142C94.3989 20.142 94.0939 35.5733 94.196 36.0841L93.994 49.0583L93.5793 53.5585C93.5793 53.5585 94.196 54.4764 94.7076 53.8665C94.7076 53.8665 97.9774 53.0372 100.02 53.3594C100.02 53.3594 106.567 53.9664 107.89 52.938C107.89 52.938 108.914 53.4488 109.213 51.8135C109.213 51.8135 109.618 23.2098 109.429 22.699C109.429 22.699 109.823 18.5999 109.618 18.2017C109.618 18.2017 109.528 17.2831 107.787 18.0958C107.787 18.0958 107.986 18.9184 98.2854 18.5999C98.2854 18.5999 94.6077 18.5 94.3989 20.142Z" fill="white"/>
<path d="M110.652 19.7374L110.553 52.0226C110.553 52.0226 111.369 54.8943 112.696 54.5931C112.696 54.5931 112.895 53.9726 112.994 52.951L113.408 22.1884C113.408 22.1884 112.38 17.293 110.652 19.7374Z" fill="white"/>
<path d="M110.649 19.7344L110.55 52.0264C110.55 52.0264 111.369 54.8989 112.695 54.5969C112.695 54.5969 112.898 53.9764 112.997 52.9548L113.408 22.1855C113.408 22.1855 112.381 17.2901 110.649 19.7344Z" stroke="#9656A1" stroke-width="0.016"/>
<path d="M98.103 29.4044C97.798 28.5887 99.8404 28.4857 99.8404 28.4857L100.866 28.6878C101.582 28.5887 102.298 28.8966 102.298 28.8966C103.012 30.0181 101.784 30.6281 101.784 30.6281L101.377 31.9614C101.271 33.0889 101.377 42.7963 101.377 42.7963C101.582 43.3003 102.398 44.216 102.398 44.216C102.398 45.1407 101.271 44.9386 101.271 44.9386L98.3118 45.0415C97.3901 44.9386 97.6951 43.9132 97.6951 43.9132C98.7167 43.4032 99.0254 41.5591 99.0254 41.5591V31.4476L98.103 29.4044Z" fill="#9656A1"/>
<path d="M84.3102 38.9094L84.1081 42.0764L85.02 43.6058C85.6405 44.4215 84.6151 45.042 84.6151 45.042L81.3453 44.7363C80.7384 44.4215 81.3453 43.4029 81.3453 43.4029C82.1648 42.8997 82.267 41.5626 82.267 41.5626L82.1648 35.6366L82.267 31.3452C82.267 30.8306 81.4512 29.9187 81.4512 29.9187C80.7384 29.8158 80.9404 28.8971 80.9404 28.8971C81.1432 28.3833 82.8739 28.6883 82.8739 28.6883H87.1721C91.2615 30.0186 90.6477 32.9827 90.6477 32.9827C90.9565 35.9416 87.7888 37.175 87.7888 37.175L87.577 38.8103L90.5448 43.5028C91.0556 43.9137 90.9565 44.3284 90.9565 44.3284C90.5448 45.4529 88.9065 44.3284 88.9065 44.3284L85.2326 38.6015C84.9239 38.1898 84.3102 38.9094 84.3102 38.9094ZM84.4131 30.8306C84.5122 33.0856 84.5122 36.1504 84.5122 36.1504C86.4592 37.6858 87.577 35.5337 87.577 35.5337C90.1272 33.0856 87.577 30.8306 87.1721 30.2237C86.7575 29.607 84.715 30.1178 84.715 30.1178L84.4131 30.8306Z" fill="#9656A1"/>
<path d="M63.0255 78.6105C63.0255 78.6105 63.7421 78.3085 63.9442 77.8045C63.9442 77.8045 66.0933 77.5949 66.3945 77.2907L73.1437 77.8045C73.1437 77.8045 79.7833 78.3085 82.6453 76.2556C82.6453 76.2556 83.6736 76.2556 84.3895 76.5673C84.3895 76.5673 85.8122 76.879 86.2201 77.483L90.1074 77.3801C90.1074 77.3801 92.3556 78.1027 92.1468 79.5352V81.3695C92.1468 81.3695 91.7359 85.051 92.7575 85.2598H95.7284C95.7284 85.2598 98.1832 86.3813 97.8745 87.81C97.8745 87.81 97.9774 89.8465 95.835 90.2611C95.835 90.2611 93.6792 90.871 92.9723 90.7749C92.9723 90.7749 92.2527 91.6906 92.1468 92.8143L91.8486 106.203C91.8486 106.203 91.6398 107.633 93.7888 107.43C93.7888 107.43 96.949 107.122 97.8745 108.866C97.8745 108.866 98.6932 111.824 97.0587 112.335L95.835 112.942L93.1714 113.367C93.1714 113.367 92.0544 113.459 91.9477 115.4V118.971C91.9477 118.971 92.0544 121.432 90.1074 121.432L87.2454 121.637C87.2454 121.637 86.5318 122.241 85.1031 121.833C85.1031 121.833 67.7278 122.148 67.1141 121.94L65.0687 122.354C65.0687 122.354 62.8227 124.397 60.9823 122.858L59.5528 121.734C59.5528 121.734 58.5282 121.94 58.1271 121.833C57.7162 121.734 38.9115 122.042 38.9115 122.042C38.9115 122.042 34.925 122.457 34.623 121.121C34.623 121.121 34.113 115.914 34.3151 115.29C34.3151 115.29 34.3151 113.764 33.3964 113.665C33.3964 113.665 29.4099 113.459 29.307 113.045C29.307 113.045 27.1579 111.52 27.7716 109.99C27.7716 109.99 28.4913 107.938 30.6336 107.735C30.6336 107.735 33.9034 108.252 33.9034 107.331C33.9034 107.331 34.113 106.717 34.113 105.699C34.113 105.699 34.3151 93.5309 34.2122 92.7152C34.2122 92.7152 34.5171 91.1828 33.1876 91.1828C33.1876 91.1828 31.7581 91.5877 30.8424 90.9777C30.8424 90.9777 28.3883 91.0806 27.8775 89.1366C27.8775 89.1366 27.4667 87.9129 28.0766 86.8816C28.0766 86.8816 29.2049 84.6363 32.4747 85.3552C32.4747 85.3552 34.3151 85.8698 34.5171 84.5462L34.421 79.6313C34.421 79.6313 34.0063 78.3085 36.5633 77.5949C36.5633 77.5949 39.8332 78.5106 40.8517 76.879C40.8517 76.879 41.9792 74.6233 42.8882 76.1564C42.8882 76.1564 44.8382 78.0005 50.1512 77.8045C50.1512 77.8045 59.3508 77.0818 59.5528 77.483C59.5528 77.483 61.8018 77.8045 62.4118 78.5106L63.0255 78.6105Z" fill="#9656A1"/>
<path d="M63.0255 78.4846C63.0255 78.4846 63.7346 78.1864 63.9442 77.6756C63.9442 77.6756 66.0895 77.4668 66.3945 77.1611L73.1407 77.6756C73.1407 77.6756 79.7833 78.1864 82.6453 76.1335C82.6453 76.1335 83.6736 76.1335 84.3895 76.4452C84.3895 76.4452 85.8159 76.7532 86.2171 77.3571L90.1104 77.2572C90.1104 77.2572 92.3556 77.9806 92.1468 79.4093V81.2474C92.1468 81.2474 91.7389 84.9282 92.7605 85.131H95.7284C95.7284 85.131 98.1794 86.2585 97.8775 87.688C97.8775 87.688 97.9804 89.7244 95.835 90.139C95.835 90.139 93.6829 90.749 92.9761 90.6491C92.9761 90.6491 92.2565 91.5678 92.1468 92.6923L91.8448 106.084C91.8448 106.084 91.6397 107.507 93.7851 107.308C93.7851 107.308 96.949 107.007 97.8775 108.74C97.8775 108.74 98.697 111.702 97.0617 112.216L95.835 112.827L93.1714 113.241C93.1714 113.241 92.0506 113.34 91.9515 115.274V118.859C91.9515 118.859 92.0506 121.31 90.1104 121.31L87.2484 121.515C87.2484 121.515 86.5318 122.126 85.1031 121.718C85.1031 121.718 67.7278 122.026 67.1141 121.814L65.0649 122.228C65.0649 122.228 62.8227 124.274 60.9823 122.732L59.5498 121.608C59.5498 121.608 58.5282 121.814 58.1241 121.718C57.7125 121.608 38.9115 121.923 38.9115 121.923C38.9115 121.923 34.922 122.335 34.617 121.002C34.617 121.002 34.1092 115.788 34.3113 115.171C34.3113 115.171 34.3113 113.645 33.3896 113.542C33.3896 113.542 29.4069 113.34 29.301 112.929C29.301 112.929 27.1549 111.394 27.7679 109.865C27.7679 109.865 28.4875 107.816 30.6336 107.609C30.6336 107.609 33.9004 108.134 33.9004 107.201C33.9004 107.201 34.1092 106.591 34.1092 105.576C34.1092 105.576 34.3113 93.4089 34.2121 92.5924C34.2121 92.5924 34.5171 91.054 33.1838 91.054C33.1838 91.054 31.7551 91.4618 30.8356 90.8549C30.8356 90.8549 28.3853 90.9548 27.8745 89.0145C27.8745 89.0145 27.4599 87.7909 28.0766 86.7625C28.0766 86.7625 29.1981 84.5135 32.4709 85.2301C32.4709 85.2301 34.3113 85.7477 34.5171 84.4211L34.4142 79.5092C34.4142 79.5092 34.0033 78.1864 36.5603 77.4668C36.5603 77.4668 39.8301 78.3885 40.8517 76.7532C40.8517 76.7532 41.9725 74.502 42.8881 76.0276C42.8881 76.0276 44.8382 77.8717 50.1474 77.6756C50.1474 77.6756 59.3508 76.9523 59.5498 77.3571C59.5498 77.3571 61.8018 77.6756 62.4118 78.3885L63.0255 78.4846Z" stroke="#9656A1" stroke-width="0.0133333"/>
<path d="M65.6817 118.772C65.6817 118.772 66.9121 118.152 67.7316 118.365C68.5504 118.567 80.503 118.265 80.503 118.265C80.503 118.265 85.7131 118.67 86.5356 117.946L87.7525 117.542C87.7525 117.542 88.2663 116.932 88.2663 116.119C88.2663 115.294 88.3693 112.534 88.3693 112.534L88.681 111.52C88.681 111.52 88.5751 110.498 88.681 83.2068C88.681 83.2068 89.0821 81.0712 87.7525 79.7349C87.7525 79.7349 87.7525 78.9252 88.1604 79.0221C88.5751 79.1317 88.3693 79.1317 88.3693 79.1317C88.3693 79.1317 90.2066 78.6104 90.5086 79.3263C90.5086 79.3263 91.3341 81.7706 90.6145 83.2068C90.6145 83.2068 90.4087 86.1747 91.9546 86.1747C91.9546 86.1747 92.5578 86.7922 93.7852 86.4804C93.7852 86.4804 96.4413 86.7922 96.4413 87.6012C96.4413 87.6012 96.4413 89.4483 94.601 89.1403L92.1439 89.3386C92.1439 89.3386 90.5086 89.6541 90.7174 91.5884C90.9262 93.5309 90.6145 107.43 90.6145 107.43C90.6145 107.43 90.6145 109.072 93.1752 108.969C93.1752 108.969 96.3392 108.863 96.3392 109.778C96.3392 109.778 97.1542 111.821 94.9097 111.928C94.9097 111.928 90.6145 111.821 90.9262 113.045C90.9262 113.045 90.6145 115.913 90.4087 116.418C90.4087 116.418 90.8271 118.772 90.3065 119.184C90.3065 119.184 90.0045 120.507 87.2485 120.305C87.2485 120.305 69.6749 120.205 66.9121 120.408C66.9121 120.408 65.2738 120.205 65.6817 118.772" fill="white"/>
<path d="M62.5211 116.833C62.5211 116.833 64.2556 117.135 64.2556 118.773C64.2556 120.404 64.3585 121.326 63.3309 121.529C62.3123 121.734 61.1916 121.433 60.8896 120.105C60.5749 118.773 61.0849 117.135 62.5211 116.833Z" fill="white"/>
<path d="M64.5608 116.017C64.5608 116.017 66.3982 114.782 67.114 114.996C67.114 114.996 76.4105 115.602 79.2792 115.101C82.1374 114.587 80.3999 114.996 80.3999 114.996C80.3999 114.996 82.8548 114.996 83.5639 114.069C83.5639 114.069 84.2835 113.873 84.6914 114.587L86.217 116.228C86.217 116.228 86.3327 117.24 84.5884 117.137C84.5884 117.137 67.9268 117.137 67.4227 117.24C67.4227 117.24 64.2558 117.744 64.5608 116.017" fill="white"/>
<path d="M64.5575 116.017C64.5575 116.017 66.3949 114.783 67.1107 114.992C67.1107 114.992 76.4139 115.602 79.2789 115.101C82.1416 114.584 80.3996 114.992 80.3996 114.992C80.3996 114.992 82.8575 114.992 83.5673 114.063C83.5673 114.063 84.2839 113.872 84.6948 114.584L86.2204 116.229C86.2204 116.229 86.3331 117.244 84.5919 117.138C84.5919 117.138 67.9302 117.138 67.4194 117.244C67.4194 117.244 64.2525 117.748 64.5575 116.017V116.017Z" stroke="#9656A1" stroke-width="0.016"/>
<path d="M40.3444 79.7384C40.3444 79.7384 41.061 79.7384 40.9573 80.9658L40.7493 111.825C40.7493 111.825 41.061 113.874 39.3228 115.197C39.3228 115.197 38.3974 116.318 38.3974 114.587L38.815 83.1111C38.815 83.1111 38.9119 80.7592 40.3444 79.7384" fill="white"/>
<path d="M40.3444 79.7352C40.3444 79.7352 41.061 79.7352 40.9641 80.9619L40.7493 111.828C40.7493 111.828 41.061 113.877 39.3198 115.201C39.3198 115.201 38.3906 116.322 38.3906 114.59L38.809 83.1109C38.809 83.1109 38.9081 80.756 40.3444 79.7352Z" stroke="#9656A1" stroke-width="0.016"/>
<path d="M38.7093 79.9438C38.7093 79.9438 37.4819 82.1958 37.5848 82.7103L37.4819 89.5482C37.4819 89.5482 37.379 93.9425 37.4819 94.4563C37.5848 94.9641 37.379 107.842 37.379 107.842C37.379 107.842 37.2768 110.289 37.379 111.111V116.627C37.379 116.627 37.1739 119.084 39.0113 118.461C39.0113 118.461 56.9995 118.057 58.127 118.368C58.127 118.368 59.7556 118.67 59.1516 119.489C59.1516 119.489 59.1516 120.209 58.0174 120C58.0174 120 49.5374 120.812 41.8762 120.511C41.8762 120.511 36.766 120.812 36.4543 120.209C36.4543 120.209 35.6415 120.106 35.6415 117.138C35.6415 117.138 35.6415 114.386 35.4425 113.874C35.4425 113.874 35.6415 112.425 33.0883 112.13C33.0883 112.13 29.5127 112.747 29.4098 110.601C29.4098 110.601 29.9176 109.069 33.3963 109.268C33.3963 109.268 35.9503 109.679 35.4425 107.63L35.7444 92.5161C35.7444 92.5161 36.0592 89.8472 34.315 89.7405C34.315 89.7405 32.6864 89.6579 32.1659 89.8472C32.1659 89.8472 29.2048 89.8472 29.4098 88.1225C29.4098 88.1225 30.4314 86.2784 33.3963 86.6893C33.3963 86.6893 35.6415 87.0949 35.7444 84.5469C35.7444 84.5469 35.6415 79.3308 36.8652 79.1317C36.8652 79.1317 39.4259 79.2241 38.7093 79.9438" fill="white"/>
<path d="M41.7705 113.765C41.7705 113.765 43.203 115.29 45.5579 115.201L59.4432 115.4C59.4432 115.4 60.9861 115.509 60.8892 116.318C60.8892 116.318 60.6706 117.542 58.84 117.135L42.0785 116.933L40.2351 117.044C40.2351 117.044 39.0077 116.833 40.9577 114.484L41.7705 113.765Z" fill="white"/>
<path d="M41.7668 113.761C41.7668 113.761 43.2 115.29 45.5579 115.197L59.4471 115.4C59.4471 115.4 60.9854 115.506 60.8931 116.318C60.8931 116.318 60.6775 117.545 58.8469 117.141L42.0755 116.938L40.2314 117.044C40.2314 117.044 39.0078 116.836 40.954 114.481L41.7668 113.761Z" stroke="#9656A1" stroke-width="0.016"/>
<path d="M84.6916 112.428C84.6916 112.428 85.9183 114.783 86.532 115.105C86.532 115.105 87.6565 116.421 87.3515 114.073L87.5536 84.6402C87.5536 84.6402 87.2448 83.6157 87.5536 81.9871L86.3299 79.7381C86.3299 79.7381 84.9966 78.7173 84.9966 80.3488L84.7945 111.725L84.6916 112.428Z" fill="white"/>
<path d="M84.6883 112.432C84.6883 112.432 85.9187 114.783 86.5354 115.108C86.5354 115.108 87.6599 116.428 87.3549 114.074L87.557 84.6334C87.557 84.6334 87.2483 83.6156 87.557 81.987L86.3303 79.7358C86.3303 79.7358 84.9933 78.7172 84.9933 80.3487L84.7912 111.728L84.6883 112.432Z" stroke="#9656A1" stroke-width="0.016"/>
<path d="M62.0073 98.4361C62.0073 98.4361 62.1102 100.88 61.7984 103.226C61.6324 104.522 62.2123 110.492 61.6955 113.553C61.6955 113.553 61.6024 114.577 59.4465 113.662C59.4465 113.662 46.3702 113.963 45.9623 113.553C45.9623 113.553 42.3875 113.662 42.0788 111.818C42.0788 111.818 42.5896 97.8194 42.2846 97.2988C42.2846 97.2988 42.0788 89.6376 42.2846 88.9248C42.2846 88.9248 42.5896 81.8743 42.3875 81.0578C42.3875 81.0578 42.4904 79.4225 42.1817 78.6007C42.1817 78.6007 42.1817 77.5791 43.9229 78.1898C43.9229 78.1898 44.5268 79.3173 47.9026 78.8163C47.9026 78.8163 50.3596 79.2212 52.7116 78.9124C52.7116 78.9124 57.9179 78.5046 59.2512 78.9124C59.2512 78.9124 61.2974 78.5046 61.9006 80.7596L61.7984 87.0904L62.4084 89.1336L63.128 88.6258L63.43 87.0904L63.5329 80.3449C63.5329 80.3449 63.9408 79.1145 65.5821 78.9124C65.5821 78.9124 68.1361 78.6007 68.5507 78.8163C68.9586 79.0124 74.4669 79.3173 76.0091 79.0123C77.5377 78.7066 77.8397 80.0332 82.4466 77.6888C82.4466 77.6888 83.6732 77.7917 83.6732 78.6007C83.6732 78.6007 83.2556 87.3 83.6732 88.9248C83.6732 88.9248 83.6732 104.864 83.3547 105.988L83.5636 111.098C83.5636 111.098 83.7664 113.348 80.1976 113.553C80.1976 113.553 82.4466 113.861 68.3351 113.453C68.3351 113.453 66.0899 113.348 63.6388 114.468C63.6388 114.468 63.128 114.368 63.128 113.042C63.128 113.042 63.5329 108.243 63.128 103.533L62.9297 98.3241L62.0073 98.4361Z" fill="white"/>
<path d="M52.8072 91.186C52.8072 91.186 53.116 98.745 52.8072 99.7659L52.7111 101.405C52.7111 101.405 53.116 102.522 53.7297 102.937C53.7297 102.937 54.2435 104.362 53.0131 104.263C53.0131 104.263 50.4628 104.057 49.8491 104.154C49.8491 104.154 48.4129 104.154 49.8491 102.326C49.8491 102.326 50.3599 101.599 50.254 99.7659C50.254 99.7659 50.254 91.186 50.4628 90.679C50.4628 90.679 50.6649 89.5477 49.9483 89.2398L48.7179 89.3457L47.1923 90.7751C47.1923 90.7751 46.8805 92.3143 46.1647 90.679V89.8535L47.0901 87.4024L47.7038 87.2957C47.7038 87.2957 48.6187 87.9102 49.4345 88.122H54.2435L55.9779 87.2957C55.9779 87.2957 56.6908 87.4024 56.4955 88.3211C56.4955 88.3211 56.7937 90.679 55.4671 90.978C55.4671 90.978 54.6484 90.679 54.2435 89.5477C54.2435 89.5477 52.9139 88.8386 52.8072 91.186" fill="#9656A1"/>
<path d="M75.389 88.4274C75.389 88.4274 71.5122 88.1187 71.416 92.3072C71.416 92.3072 70.9946 95.1759 75.2928 97.0171C75.2928 97.0171 78.4635 98.5427 78.2509 100.483C78.2509 100.483 77.843 103.959 74.4703 102.223C74.4703 102.223 72.8388 101.401 72.9477 100.483C72.9477 100.483 72.4279 99.3554 71.8172 99.5635C71.8172 99.5635 71.0975 99.7633 71.416 103.139C71.416 103.139 71.416 104.469 72.9477 103.139L73.7537 103.348C73.7537 103.348 76.5165 105.596 78.8616 102.831C78.8616 102.831 81.4216 100.483 79.5775 97.624C79.5775 97.624 78.2509 95.5876 75.9035 94.563C75.9035 94.563 73.6545 93.5316 73.1475 91.7964C73.1475 91.7964 73.8633 88.7257 76.6164 90.361C76.6164 90.361 77.641 91.5884 78.2509 91.7964C78.2509 91.7964 79.0704 91.7964 78.8616 89.9493L78.6686 88.4274C78.6686 88.4274 78.4635 87.2894 77.0273 88.4274C77.0273 88.4274 75.6977 88.9315 75.389 88.4274" fill="#9656A1"/>
<path d="M62.9257 86.2752C63.6386 86.7957 63.7415 87.8143 63.7415 87.8143C65.7847 93.2265 67.5259 101.102 67.5259 101.102C68.0329 102.114 68.9554 102.937 68.9554 102.937C70.6928 103.547 68.9554 104.055 68.9554 104.055C68.2387 104.366 65.8943 103.961 65.8943 103.961C64.6602 103.743 65.168 103.345 65.168 103.345C65.6848 102.834 65.2739 100.784 65.2739 100.784C65.168 99.975 64.256 98.6424 64.256 98.6424C63.8482 98.4358 63.1315 99.3552 63.1315 99.3552C63.1315 99.3552 62.0108 99.7661 61.9011 99.3552C61.7982 98.9398 61.0854 98.553 61.0854 98.553C59.858 98.553 59.3509 101.6 59.3509 101.6C60.0638 104.157 59.3509 103.743 59.3509 103.743C58.741 104.569 56.7939 103.961 56.7939 103.961C55.8753 103.743 56.495 103.03 56.495 103.03C57.6127 102.834 57.9177 101.6 57.9177 101.6C58.4322 100.887 61.6953 87.6055 61.6953 87.6055C62.0108 86.988 62.2091 85.7644 62.9257 86.2752ZM61.2979 93.0176C61.1913 93.5314 60.4717 96.3934 60.4717 96.3934L61.0854 97.4247C61.0854 97.4247 62.7237 97.5179 63.3336 97.5179C63.9406 97.5179 64.0502 97.0169 64.0502 96.4955C64.0502 95.9893 62.9257 92.9245 62.9257 92.9245L62.4089 92.3108L61.2979 93.0176Z" fill="#9656A1"/>
<path d="M35.2436 61.5312C35.2436 61.5312 34.1161 65.1157 29.1088 61.4282L11.9423 61.0166C11.9423 61.0166 9.69407 61.74 9.38534 59.3858C9.38534 59.3858 9.79698 54.6895 9.5844 54.2779C9.5844 54.2779 9.69407 52.9445 7.44207 52.9445C7.44207 52.9445 3.97317 53.3622 3.87327 50.2952C3.87327 50.2952 3.25656 47.0148 8.05878 47.1275C8.05878 47.1275 9.5844 47.8403 9.69407 45.8978C9.69407 45.8978 9.48825 32.6149 9.5844 31.5873C9.5844 31.5873 10.0021 30.3734 7.65089 30.1638C7.65089 30.1638 4.27439 30.8737 3.87327 28.6255C3.87327 28.6255 3.66444 25.2595 5.90969 25.0506C5.90969 25.0506 8.66948 25.2595 9.18328 24.5526C9.18328 24.5526 9.79698 24.9477 9.69407 22.4929L9.79698 18.3081C9.79698 18.3081 10.105 17.1836 11.8327 17.2866C11.8327 17.2866 15.0101 17.4886 15.421 17.1837C15.421 17.1837 16.1346 16.2687 16.3299 15.8533C16.3299 15.8533 17.975 15.7572 18.2799 16.1553C18.2799 16.1553 20.7272 17.8004 30.0365 17.1837C30.0365 17.1837 31.4592 17.1836 31.7679 17.5953C31.7679 17.5953 33.5024 18.9211 34.524 17.4886C34.524 17.4886 36.0563 17.1836 40.6588 17.2866C40.6588 17.2866 45.657 18.6131 49.1364 15.7572L50.2572 15.9668C50.2572 15.9668 51.6867 18.3081 52.718 17.5953C52.718 17.5953 55.779 17.2866 56.2928 17.9033C56.2928 17.9033 57.3174 19.4357 56.7969 23.4251C56.7969 23.4251 56.1899 25.1596 59.1518 25.1596C59.1518 25.1596 62.5208 24.5526 62.1166 27.7068C62.1166 27.7068 63.0383 31.2853 57.4173 30.7775C57.4173 30.7775 56.6977 31.8021 56.7969 32.5158C56.7969 32.5158 56.6977 44.1596 56.5978 45.496C56.5978 45.496 56.4987 47.3235 58.9497 47.2304C58.9497 47.2304 62.2196 47.0148 62.3187 49.9902C62.3187 49.9902 62.7266 53.87 58.0303 53.1504C58.0303 53.1504 56.5978 53.3622 56.389 54.2779L56.1899 59.3858C56.1899 59.3858 56.2928 61.942 53.4241 61.3321C53.0162 61.3321 37.4926 61.6341 36.1585 61.2329C36.1585 61.2329 35.4456 61.13 35.2436 61.5312Z" fill="#9656A1"/>
<path d="M35.2436 61.5342C35.2436 61.5342 34.1161 65.1196 29.1088 61.4313L11.9393 61.0204C11.9393 61.0204 9.69032 61.7431 9.38234 59.3859C9.38234 59.3859 9.79699 54.6896 9.5844 54.2779C9.5844 54.2779 9.69032 52.9484 7.43832 52.9484C7.43832 52.9484 3.96942 53.366 3.87026 50.2983C3.87026 50.2983 3.25656 47.0149 8.05878 47.1276C8.05878 47.1276 9.5844 47.8412 9.69032 45.9009C9.69032 45.9009 9.4845 32.612 9.5844 31.5874C9.5844 31.5874 10.0021 30.3697 7.64789 30.1639C7.64789 30.1639 4.27139 30.8745 3.87026 28.6225C3.87026 28.6225 3.66144 25.2558 5.90969 25.0507C5.90969 25.0507 8.66572 25.2558 9.18328 24.5467C9.18328 24.5467 9.79698 24.9478 9.69032 22.493L9.79699 18.3045C9.79699 18.3045 10.102 17.1807 11.8327 17.2866C11.8327 17.2866 15.0071 17.4857 15.418 17.1807C15.418 17.1807 16.1346 16.2688 16.3299 15.8534C16.3299 15.8534 17.9712 15.7543 18.2799 16.1554C18.2799 16.1554 20.7242 17.7974 30.0365 17.1807C30.0365 17.1807 31.4592 17.1807 31.7679 17.5916C31.7679 17.5916 33.5024 18.9182 34.524 17.4857C34.524 17.4857 36.0594 17.1807 40.6588 17.2866C40.6588 17.2866 45.6608 18.6064 49.1364 15.7543L50.2602 15.9631C50.2602 15.9631 51.6897 18.3045 52.718 17.5916C52.718 17.5916 55.779 17.2866 56.2996 17.8966C56.2996 17.8966 57.3174 19.4327 56.8006 23.4184C56.8006 23.4184 56.1899 25.1596 59.1518 25.1596C59.1518 25.1596 62.5275 24.5467 62.1166 27.7039C62.1166 27.7039 63.0383 31.2854 57.4203 30.7746C57.4203 30.7746 56.6977 31.7992 56.8006 32.5158C56.8006 32.5158 56.6977 44.1597 56.6016 45.493C56.6016 45.493 56.4987 47.3266 58.9497 47.2342C58.9497 47.2342 62.2196 47.0149 62.3225 49.9933C62.3225 49.9933 62.7266 53.8701 58.0303 53.1504C58.0303 53.1504 56.6016 53.366 56.3927 54.2779L56.1899 59.3859C56.1899 59.3859 56.2996 61.9459 53.4279 61.3352C53.02 61.3352 37.4926 61.6341 36.1585 61.233C36.1585 61.233 35.4456 61.1331 35.2436 61.5342Z" stroke="#9656A1" stroke-width="0.0133333"/>
<path d="M15.9285 19.4357C15.9285 19.4357 16.1343 21.4752 16.1343 21.986C16.1343 22.4968 15.8226 51.5189 15.8226 51.5189C15.8226 51.5189 16.1343 53.7739 14.188 54.8917C14.188 54.8917 13.6802 55.1005 13.5743 53.671L13.7831 23.0143C13.7831 23.0143 13.9852 19.2299 15.9285 19.4357" fill="white"/>
<path d="M15.9321 19.4322C15.9321 19.4322 16.1372 21.4717 16.1372 21.9824C16.1372 22.4932 15.8255 51.5184 15.8255 51.5184C15.8255 51.5184 16.1372 53.7734 14.1879 54.8979C14.1879 54.8979 13.6801 55.1037 13.5742 53.6743L13.7763 23.0138C13.7763 23.0138 13.9821 19.2294 15.9321 19.4322V19.4322Z" stroke="#9656A1" stroke-width="0.016"/>
<path d="M12.556 55.1971C12.556 55.1971 12.755 26.3807 12.6589 25.8662C12.556 25.3622 12.755 26.2808 12.755 26.2808C12.755 26.2808 12.4568 21.2796 13.7826 19.2304C13.7826 19.2304 13.3717 17.4922 11.0206 19.6345L10.9274 23.8268C10.9274 23.8268 10.9274 26.1779 8.77532 26.075C8.77532 26.075 6.32125 25.9691 5.19375 27.1004C5.19375 27.1004 4.58305 29.3449 6.92819 28.9407C6.92819 28.9407 10.6127 28.9407 10.8147 30.4626L10.6127 45.8976C10.6127 45.8976 11.4315 48.4516 8.56649 48.4516C8.56649 48.4516 5.09384 48.2555 5.19375 50.4016C5.19375 50.4016 5.90961 52.242 8.87823 51.6253C8.87823 51.6253 11.0206 52.0362 10.9274 54.0696V57.9629C10.9274 57.9629 10.7118 59.4983 12.755 59.5914H28.7001C28.7001 59.5914 29.5166 59.6936 29.5166 58.669C29.5166 58.669 29.4129 57.863 28.193 57.863L14.9139 57.6511C14.9139 57.6511 12.755 58.3678 12.556 55.1971Z" fill="white"/>
<path d="M15.3152 55.4053C15.3152 55.4053 14.9103 56.8415 16.436 56.526H26.9621L29.824 57.1367C29.824 57.1367 32.7957 56.4231 29.824 54.7848C29.824 54.7848 20.4224 54.8945 19.6029 54.6887C19.6029 54.6887 17.6664 54.1786 17.2555 54.075C17.2555 54.075 16.2309 53.6708 15.3152 55.4053Z" fill="white"/>
<path d="M15.3119 55.4022C15.3119 55.4022 14.907 56.8444 16.4327 56.5229H26.9625L29.8283 57.1396C29.8283 57.1396 32.7991 56.4268 29.8283 54.7855C29.8283 54.7855 20.4221 54.8944 19.6033 54.6826C19.6033 54.6826 17.6631 54.1748 17.2522 54.0756C17.2522 54.0756 16.2268 53.6678 15.3119 55.4022Z" stroke="#9656A1" stroke-width="0.016"/>
<path d="M32.7927 56.8415C32.7927 56.8415 30.8465 56.8415 30.9486 59.3819C30.9486 59.3819 31.1544 61.335 33.1939 61.335C33.1939 61.335 35.035 61.0172 34.8359 58.9838C34.8359 58.9838 33.7077 56.4238 32.7927 56.8415" fill="white"/>
<path d="M34.2188 55.8099C34.2188 55.8099 35.1344 54.7883 35.7542 54.7883C35.7542 54.7883 45.9693 55.7107 47.7068 54.4863C47.7068 54.4863 49.2451 54.1814 49.647 54.4863C49.647 54.4863 51.1794 55.7107 51.1794 56.4236C51.1794 56.4236 51.0795 57.3521 49.2451 56.8413C49.2451 56.8413 37.6877 56.9374 37.0807 56.9374C37.0807 56.9374 33.91 57.6503 34.2188 55.8099" fill="white"/>
<path d="M34.2155 55.8104C34.2155 55.8104 35.1342 54.7858 35.7509 54.7858C35.7509 54.7858 45.9691 55.7112 47.7065 54.4868C47.7065 54.4868 49.2487 54.1788 49.6498 54.4868C49.6498 54.4868 51.1822 55.7112 51.1822 56.4271C51.1822 56.4271 51.083 57.3563 49.2487 56.8417C49.2487 56.8417 37.6912 56.9416 37.0775 56.9416C37.0775 56.9416 33.9068 57.6545 34.2155 55.8104V55.8104Z" stroke="#9656A1" stroke-width="0.016"/>
<path d="M35.8539 58.8777C35.8539 58.8777 35.8539 58.0649 37.2766 58.0649L51.5939 57.959C51.5939 57.959 52.9167 58.6651 52.9167 56.2208C52.9167 56.2208 53.441 45.078 53.4876 32.8136C53.5071 29.1659 53.6664 25.3357 53.5274 21.7865C53.5274 21.7865 53.2224 20.2578 52.8145 19.9423C52.8145 19.9423 52.8145 18.3078 54.5588 18.9275C54.5588 18.9275 56.0806 19.0244 55.6758 21.3718L55.7757 24.9504C55.7757 24.9504 55.4707 26.4828 58.2297 26.0749C58.2297 26.0749 60.9858 26.4828 61.0849 27.5044C61.0849 27.5044 61.9112 29.5535 58.6444 29.3447H56.2962C56.2962 29.3447 55.2716 29.9554 55.5766 31.1858L55.2716 45.9996C55.2716 45.9996 55.059 48.5536 57.5199 48.4605C57.5199 48.4605 60.0738 48.3545 60.5779 49.1703C60.5779 49.1703 62.3221 51.7273 58.5385 51.5222C58.5385 51.5222 56.1865 51.4156 55.6758 51.8234C55.6758 51.8234 55.2716 52.344 54.9629 57.1402C54.9629 57.1402 55.165 60.0022 53.0196 59.6934C53.0196 59.6934 38.815 59.8925 37.4922 59.5905C37.4922 59.5905 36.056 60.0022 35.8539 58.8777" fill="white"/>
<path d="M17.4543 18.5074L17.1561 51.3132C17.1561 51.3132 17.0532 52.8358 19.6064 53.1438C19.6064 53.1438 22.575 53.4525 23.2849 53.1438C23.2849 53.1438 25.2214 53.0446 30.2325 53.2504C30.2325 53.2504 31.4599 54.4703 31.559 52.9455C31.559 52.9455 32.3785 26.3706 31.9699 20.8555C31.9699 20.8555 31.8708 18.5074 30.1265 18.4045C30.1265 18.4045 22.3662 19.0152 21.6496 18.4045L18.5886 17.5849C18.5886 17.5849 17.3552 17.6818 17.4543 18.5074Z" fill="white"/>
<path d="M49.8492 19.7342L49.7493 52.0292C49.7493 52.0292 50.5688 54.8986 51.9022 54.5929C51.9022 54.5929 52.1042 53.9762 52.2041 52.9479L52.6188 22.1852C52.6188 22.1852 51.5934 17.2794 49.8492 19.7342Z" fill="white" stroke="#9656A1" stroke-width="0.016"/>
<path d="M49.8492 19.7342L49.7493 52.0292C49.7493 52.0292 50.5688 54.8986 51.9022 54.5929C51.9022 54.5929 52.1042 53.9762 52.2041 52.9479L52.6188 22.1852C52.6188 22.1852 51.5934 17.2794 49.8492 19.7342Z" stroke="#9656A1" stroke-width="0.016"/>
<path d="M33.6117 20.009C33.6117 20.009 33.3038 35.4373 33.3999 35.9548L33.2069 48.935L32.793 53.4188C32.793 53.4188 33.3999 54.351 33.9137 53.7335C33.9137 53.7335 37.1873 52.9207 39.2297 53.2235C39.2297 53.2235 45.7732 53.8402 47.0967 52.8148C47.0967 52.8148 48.1183 53.3226 48.4263 51.6873C48.4263 51.6873 48.8312 23.0798 48.6284 22.566C48.6284 22.566 49.04 18.4834 48.8312 18.0793C48.8312 18.0793 48.7283 17.1501 47.0006 17.9628C47.0006 17.9628 47.1989 18.7884 37.4953 18.4834C37.4953 18.4834 33.8146 18.3775 33.6117 20.009" fill="white"/>
<path d="M30.4545 29.4612L29.5298 31.4113C29.5298 31.4113 27.2906 41.3177 26.0669 43.3571C26.0669 43.3571 25.8611 45.407 24.1237 43.768C24.1237 43.768 20.1342 31.2024 19.9314 30.7915L18.6018 29.8721C18.6018 29.8721 17.7958 28.7484 19.2185 28.6485L22.9992 28.7484C22.9992 28.7484 24.2228 29.7662 22.5913 30.9035C22.5913 30.9035 22.7941 32.5358 24.9394 38.7607C24.9394 38.7607 25.5494 41.1119 26.266 39.3737L28.3122 32.1174L27.6985 29.972C27.6985 29.972 27.0818 28.9504 28.0072 28.8513C28.0072 28.8513 30.1533 28.6485 30.4545 29.4612" fill="#9656A1"/>
<path d="M36.3876 31.0993L36.2779 41.9311L35.9797 42.7469C35.9797 42.7469 34.9551 44.0705 35.668 44.1764C35.668 44.1764 34.7561 44.7931 42.2046 44.8922C42.2046 44.8922 45.0734 45.4 44.3537 41.7223C44.3537 41.7223 44.0488 40.395 43.0204 42.339C43.0204 42.339 42.7154 43.9668 39.0445 43.4598C39.0445 43.4598 38.225 42.7469 38.225 41.9311V37.4309C38.225 37.4309 38.116 36.3026 39.8565 36.4191C39.8565 36.4191 41.7968 37.6397 42.1055 37.1222C42.1055 37.1222 42.8184 35.4936 42.1055 34.469C42.1055 34.469 41.1831 34.3729 41.0839 34.7808C41.0839 34.7808 40.4702 36.0007 38.7328 35.2848C38.7328 35.2848 37.917 33.6533 38.427 32.3229C38.427 32.3229 38.225 29.7667 39.9632 29.9748C39.9632 29.9748 42.0056 30.3797 42.2046 31.0001C42.2046 31.0001 42.7154 32.2305 43.233 30.7981L42.7154 29.0531C42.7154 29.0531 42.4172 28.3365 41.9027 28.5423C41.9027 28.5423 38.427 29.0531 38.0131 28.6385L35.2533 28.9502C35.2533 28.9502 34.8492 29.9748 36.0796 30.4796C36.0796 30.4796 36.3876 30.6884 36.3876 31.0993Z" fill="#9656A1"/>
</g>
<defs>
<clipPath id="clip0_3_536">
<rect width="617" height="150" fill="white"/>
</clipPath>
</defs>
</svg>
